<svg xmlns="http://www.w3.org/2000/svg" viewBox="0 0 500 500"><g id="freepik--background-complete--inject-111"><path d="M414.79,65.69l13.13-.28,6.66-.12c2.22,0,4.46,0,6.69-.05h.45v.45l0,11.19v.5h-.5L428,77.31c-4.41,0-8.82-.11-13.24-.16h-.27v-.26c0-1.9.09-3.79.13-5.66Zm0,0,.14,5.65c.05,1.86.12,3.7.14,5.54l-.28-.28c4.42,0,8.83-.16,13.24-.16l13.24-.06-.5.5.06-11.19.44.44c-2.18,0-4.35,0-6.54,0L428.15,66Z" style="fill:#ebebeb"></path><path d="M429.56,51.58l13.13-.28,6.66-.12c2.23,0,4.46,0,6.69,0h.45v.45l.05,11.19v.5H456L442.8,63.2c-4.41,0-8.82-.11-13.24-.16h-.27v-.27c0-1.9.09-3.79.13-5.66Zm0,0,.15,5.65c0,1.86.11,3.7.13,5.54l-.28-.28c4.42-.05,8.83-.16,13.24-.16L456,62.27l-.49.5.05-11.19L456,52c-2.18,0-4.35,0-6.54-.05l-6.58-.12Z" style="fill:#ebebeb"></path><path d="M400,51.58l13.13-.28,6.66-.12c2.22,0,4.46,0,6.69,0h.44v.45L427,62.77v.5h-.5l-13.24-.06c-4.41,0-8.83-.11-13.24-.16h-.27v-.27c0-1.9.08-3.79.13-5.66Zm0,0,.14,5.65c0,1.86.11,3.7.13,5.54l-.27-.28c4.41-.05,8.83-.16,13.24-.16l13.24-.06-.5.5.06-11.19.44.44c-2.18,0-4.36,0-6.54-.05l-6.58-.12Z" style="fill:#ebebeb"></path><path d="M58.73,51.58l13.12-.28,6.66-.12c2.23,0,4.47,0,6.7,0h.44v.45l.06,11.19v.5h-.5L72,63.2c-4.42,0-8.83-.11-13.24-.16h-.28v-.27c0-1.9.09-3.79.13-5.66Zm0,0,.14,5.65c0,1.86.11,3.7.13,5.54l-.27-.28c4.41-.05,8.82-.16,13.24-.16l13.24-.06-.5.5.05-11.19.45.44C83,52,80.85,52,78.66,52l-6.58-.12Z" style="fill:#ebebeb"></path><path d="M58.73,350.75l13.12-.28,6.66-.11c2.23-.05,4.47,0,6.7-.06h.44v.45l.06,11.19v.5h-.5L72,362.37c-4.42,0-8.83-.11-13.24-.16h-.28v-.27c0-1.9.09-3.79.13-5.66Zm0,0,.14,5.65c0,1.86.11,3.71.13,5.54l-.27-.28c4.41-.05,8.82-.15,13.24-.16l13.24-.06-.5.5.05-11.19.45.44c-2.18,0-4.36,0-6.55-.05L72.08,351Z" style="fill:#ebebeb"></path><path d="M44,336.64l13.12-.28,6.66-.11c2.23-.05,4.46,0,6.7-.06h.44v.45l.06,11.19v.5h-.5l-13.24-.07c-4.42,0-8.83-.11-13.24-.16h-.28v-.27c0-1.9.09-3.79.13-5.66Zm0,0,.14,5.65c0,1.86.11,3.71.13,5.54l-.27-.28c4.41-.05,8.82-.15,13.24-.16l13.24-.06-.5.5,0-11.19.45.44c-2.19,0-4.36,0-6.55-.05l-6.58-.11Z" style="fill:#ebebeb"></path><path d="M429.56,350.74l13.13-.28,6.66-.12c2.23,0,4.46,0,6.69,0h.45v.45l.05,11.19v.5H456l-13.24-.06c-4.41,0-8.82-.11-13.24-.16h-.27v-.27c0-1.9.09-3.79.13-5.66Zm0,0,.15,5.65c0,1.86.11,3.7.13,5.54l-.28-.28c4.42,0,8.83-.16,13.24-.16l13.24-.06-.49.5.05-11.19.44.44c-2.18,0-4.35,0-6.54-.05l-6.58-.12Z" style="fill:#ebebeb"></path><path d="M371.28,210.21l-13.12.28-6.66.11c-2.23.05-4.47,0-6.7.06h-.44v-.45L344.3,199v-.5h.5l13.24.06c4.41,0,8.83.12,13.24.17h.28V199c0,1.9-.08,3.79-.13,5.66Zm0,0-.14-5.65c-.05-1.87-.11-3.71-.13-5.54l.27.27c-4.41.06-8.83.16-13.24.17l-13.24.06.5-.5-.05,11.19-.45-.44c2.18,0,4.36,0,6.55,0l6.58.11Z" style="fill:#ebebeb"></path><path d="M356.51,224.32l-13.13.28-6.66.11c-2.22,0-4.46,0-6.69.06h-.44v-.45l-.05-11.19v-.5h.5l13.24.06c4.41,0,8.83.12,13.24.17h.28v.27c0,1.9-.08,3.79-.13,5.66Zm0,0-.14-5.65c-.05-1.87-.11-3.71-.13-5.54l.27.27c-4.41.06-8.83.16-13.24.17l-13.24.06.5-.5-.06,11.19-.44-.44c2.18,0,4.36,0,6.54.05l6.58.11Z" style="fill:#ebebeb"></path><rect x="47.09" y="51.58" width="144.9" height="194.06" style="fill:#ebebeb"></rect><rect x="56.02" y="59.35" width="59.71" height="86.32" style="fill:#fff"></rect><rect x="123.35" y="59.35" width="59.71" height="86.32" style="fill:#fff"></rect><rect x="56.02" y="151.55" width="59.71" height="86.32" style="fill:#fff"></rect><rect x="123.35" y="151.55" width="59.71" height="86.32" style="fill:#fff"></rect><rect x="47.09" y="51.58" width="38.83" height="277.64" style="fill:#dbdbdb"></rect><polygon points="78.56 64.78 78.86 94.8 78.96 124.81 79.17 184.85 78.97 244.89 78.86 274.91 78.56 304.93 78.25 274.91 78.15 244.89 77.94 184.85 78.15 124.81 78.26 94.8 78.56 64.78" style="fill:#ebebeb"></polygon><polygon points="60.73 71.74 61.03 98.54 61.2 125.35 61.34 178.96 61.2 232.56 61.03 259.37 60.73 286.17 60.43 259.37 60.25 232.56 60.11 178.96 60.26 125.35 60.43 98.54 60.73 71.74" style="fill:#ebebeb"></polygon><polygon points="69.64 78.06 69.94 109.45 70.05 140.84 70.26 203.61 70.05 266.38 69.94 297.77 69.64 329.16 69.34 297.77 69.23 266.38 69.03 203.61 69.23 140.84 69.34 109.45 69.64 78.06" style="fill:#ebebeb"></polygon><polygon points="54.1 66.36 54.4 99.21 54.51 132.06 54.71 197.76 54.51 263.46 54.4 296.31 54.1 329.16 53.8 296.31 53.69 263.46 53.48 197.76 53.69 132.06 53.8 99.21 54.1 66.36" style="fill:#ebebeb"></polygon><rect x="153.16" y="51.58" width="38.83" height="277.64" transform="translate(345.15 380.79) rotate(180)" style="fill:#dbdbdb"></rect><polygon points="160.52 64.78 160.82 94.8 160.93 124.81 161.14 184.85 160.93 244.89 160.82 274.91 160.52 304.93 160.22 274.91 160.11 244.89 159.91 184.85 160.11 124.81 160.22 94.8 160.52 64.78" style="fill:#ebebeb"></polygon><polygon points="178.35 71.74 178.65 98.54 178.82 125.35 178.97 178.96 178.82 232.56 178.65 259.37 178.35 286.17 178.05 259.37 177.88 232.56 177.74 178.96 177.88 125.35 178.05 98.54 178.35 71.74" style="fill:#ebebeb"></polygon><polygon points="169.44 78.06 169.74 109.45 169.84 140.84 170.05 203.61 169.85 266.38 169.74 297.77 169.44 329.16 169.13 297.77 169.03 266.38 168.82 203.61 169.03 140.84 169.14 109.45 169.44 78.06" style="fill:#ebebeb"></polygon><polygon points="184.98 66.36 185.28 99.21 185.39 132.06 185.59 197.76 185.39 263.46 185.28 296.31 184.98 329.16 184.68 296.31 184.57 263.46 184.37 197.76 184.57 132.06 184.68 99.21 184.98 66.36" style="fill:#ebebeb"></polygon><rect x="344.85" y="107.7" width="106.6" height="6.33" transform="translate(796.3 221.73) rotate(180)" style="fill:#ebebeb"></rect><rect x="437.03" y="114.03" width="6.33" height="20.93" style="fill:#ebebeb"></rect><rect x="437.03" y="114.03" width="6.33" height="6.47" style="fill:#dbdbdb"></rect><rect x="352.94" y="114.03" width="6.33" height="20.93" style="fill:#ebebeb"></rect><rect x="352.94" y="114.03" width="6.33" height="6.47" style="fill:#dbdbdb"></rect><rect x="399.26" y="82.45" width="40.34" height="10.16" transform="translate(506.96 -331.9) rotate(90)" style="fill:#c7c7c7"></rect><rect x="417.21" y="62.34" width="4.43" height="10.16" transform="translate(486.85 -352.01) rotate(90)" style="fill:#dbdbdb"></rect><rect x="418.61" y="71.06" width="1.64" height="10.16" transform="translate(495.57 -343.29) rotate(90)" style="fill:#dbdbdb"></rect><rect x="416.58" y="94.48" width="4.43" height="11.42" transform="translate(518.99 -318.6) rotate(90)" style="fill:#dbdbdb"></rect><rect x="387.27" y="80.62" width="47.06" height="7.1" transform="translate(494.97 -326.63) rotate(90)" style="fill:#dbdbdb"></rect><rect x="401.78" y="71.99" width="18.1" height="4.26" transform="translate(484.95 -336.71) rotate(90)" style="fill:#ebebeb"></rect><rect x="352.44" y="85.1" width="47.06" height="7.1" transform="translate(705.68 -112.61) rotate(135.33)" style="fill:#c7c7c7"></rect><rect x="364.46" y="88.91" width="18.1" height="4.26" transform="translate(703.16 -106.77) rotate(135.33)" style="fill:#dbdbdb"></rect><rect x="383.35" y="83.81" width="35.74" height="12.06" transform="translate(491.06 -311.39) rotate(90)" style="fill:#a6a6a6"></rect><rect x="399.56" y="96.23" width="3.33" height="12.06" transform="translate(503.48 -298.97) rotate(90)" style="fill:#c7c7c7"></rect><rect x="400.58" y="91.73" width="1.29" height="12.06" transform="translate(498.98 -303.47) rotate(90)" style="fill:#c7c7c7"></rect><rect x="411.88" y="86.75" width="33.59" height="8.33" transform="translate(519.58 -337.76) rotate(90)" style="fill:#a6a6a6"></rect><rect x="427.11" y="98.42" width="3.13" height="8.33" transform="translate(531.25 -326.09) rotate(90)" style="fill:#c7c7c7"></rect><rect x="427.11" y="78.44" width="3.13" height="8.33" transform="translate(511.28 -346.06) rotate(90)" style="fill:#c7c7c7"></rect><rect x="428.06" y="82.76" width="1.21" height="8.33" transform="translate(515.6 -341.75) rotate(90)" style="fill:#c7c7c7"></rect></g><g id="freepik--Shadow--inject-111"><ellipse cx="250" cy="439.51" rx="198.33" ry="26.47" style="fill:#ebebeb"></ellipse></g><g id="freepik--Plant--inject-111"><path d="M104.67,306.78c-6.39-13.13-17.57-19.87-30.17-16.15S60,311.93,69.36,316.36s18.81-8.51,23.78-11.18S104.67,306.78,104.67,306.78Z" style="fill:#90CAF9"></path><path d="M110.86,341.74c0-1.59-.1-3.17-.15-4.75-.12-3.16-.22-6.32-.34-9.48-.22-5.78-.84-11.46-3.23-16.79A26,26,0,0,0,97,299a21.75,21.75,0,0,0-5.32-2.3,12.5,12.5,0,0,0-6.22-3.41,25.35,25.35,0,0,0-8.86-.22c-.11,0-.11.18,0,.16a21.4,21.4,0,0,1,8.39.6,17.69,17.69,0,0,1,3.37,1.31,18.58,18.58,0,0,1,2,1.24,18.18,18.18,0,0,0-7.7.08,16.37,16.37,0,0,0-2.67.88,7.89,7.89,0,0,0-2.1-.18,12.57,12.57,0,0,0-2.73.39,21,21,0,0,0-5.19,2.26A.09.09,0,0,0,70,300a19.12,19.12,0,0,1,5.06-1.91,17.52,17.52,0,0,1,2.6-.38,14,14,0,0,1,1.45,0A16.68,16.68,0,0,0,71,305.84c0,.1.1.18.15.08a15.3,15.3,0,0,1,10.38-8.32c.28-.07.56-.11.84-.17a11.39,11.39,0,0,0-.13,1.27c-.09.64-.2,1.28-.32,1.91a33.41,33.41,0,0,1-1,3.84,28.91,28.91,0,0,1-1.53,3.73,17.41,17.41,0,0,1-2.13,3.6.09.09,0,1,0,.14.1c.75-1.19,1.64-2.28,2.33-3.52a25.86,25.86,0,0,0,1.7-3.66,25.36,25.36,0,0,0,1.13-3.94c.14-.7.25-1.42.33-2.13a5.25,5.25,0,0,0,.08-1.31,17.6,17.6,0,0,1,4.47-.09c-.56,3.13-1.16,6.4-2.91,9.12a.08.08,0,1,0,.14.08A35.56,35.56,0,0,0,86.79,302a17.06,17.06,0,0,0,1.08-4.67,20.7,20.7,0,0,1,7.4,2.48,24.39,24.39,0,0,1,9.84,10.78A40.34,40.34,0,0,1,108.76,326c.42,6.71.51,13.47,1.18,20.16,0,.44.74.58.82.09A23.23,23.23,0,0,0,110.86,341.74Z" style="fill:#263238"></path><path d="M96.09,298a7.4,7.4,0,0,0-1.45-1.34c-.52-.43-1.06-.85-1.62-1.23a12.27,12.27,0,0,0-3.63-1.69c-.11,0-.15.14,0,.17a9.59,9.59,0,0,1,3.58,1.76c.53.39,1,.81,1.55,1.24a9.11,9.11,0,0,0,1.46,1.25C96,298.2,96.16,298.09,96.09,298Z" style="fill:#263238"></path><path d="M75.7,302.75a37.93,37.93,0,0,0-2.93,3.88A23.64,23.64,0,0,0,70.59,311s.06.07.08,0a51.56,51.56,0,0,1,5.15-8.12C75.89,302.78,75.77,302.67,75.7,302.75Z" style="fill:#263238"></path><path d="M89.45,301.45a9.5,9.5,0,0,1-.73,2.38,15.65,15.65,0,0,1-1.21,2.1s0,.09.07.05a8.48,8.48,0,0,0,2-4.49C89.62,301.39,89.46,301.34,89.45,301.45Z" style="fill:#263238"></path><path d="M110,307.1s9.05-11.36,26.51-7.33c16.6,3.83,24.25,34.26,7.48,37.9s-13.81-24.52-19.92-29.3C119.55,304.86,113.1,305.62,110,307.1Z" style="fill:#90CAF9"></path><path d="M150,316.38a33.12,33.12,0,0,0-3.59-2.75,15.86,15.86,0,0,0-3.84-1.92,23.66,23.66,0,0,0-2.27-2.93,22.61,22.61,0,0,0-5.28-4.2l.52,0a25.78,25.78,0,0,1,2.78,0,15.43,15.43,0,0,1,5.38,1.34c.1,0,.17-.11.07-.15a24.57,24.57,0,0,0-5.38-1.63,15.45,15.45,0,0,0-2.72-.23q-.74,0-1.47.09l-.28,0a23,23,0,0,0-5-1.85,4.27,4.27,0,0,1,.48-.13,22.93,22.93,0,0,1,2.59-.43,20.35,20.35,0,0,1,5.23.08c.1,0,.13-.15,0-.16a33.33,33.33,0,0,0-5.28-.22,22.77,22.77,0,0,0-4.4.57,22.26,22.26,0,0,0-3.18-.36c-6.09-.26-12.72,2-16.47,7s-4.48,11.69-5.15,17.73a134.57,134.57,0,0,0-.66,25.38c0,.5.74.41.75-.07.23-7.17.48-14.35,1.17-21.5.32-3.31.67-6.63,1.22-9.91a29,29,0,0,1,2.41-8.17,14.93,14.93,0,0,1,5.89-6.33,19.86,19.86,0,0,1,8.35-2.57,22.41,22.41,0,0,1,7.83.73,5,5,0,0,0,0,1.55,8.29,8.29,0,0,0,.38,1.91,10.51,10.51,0,0,0,.73,1.69c.32.6.73,1.13,1.09,1.71.06.09.2,0,.14-.1a7.93,7.93,0,0,1-1.36-3.44,13.3,13.3,0,0,1-.21-1.78c0-.45,0-.9,0-1.35a23.07,23.07,0,0,1,7.62,4c.43.34.84.7,1.24,1.07a8.44,8.44,0,0,0-1.48,1.82,17.56,17.56,0,0,0-1.56,2.77,23.46,23.46,0,0,0-1.61,6.07c0,.11.15.14.16,0a17.46,17.46,0,0,1,2-5.76,21.4,21.4,0,0,1,1.55-2.55c.29-.42.6-.84.91-1.24.17-.22.36-.44.52-.67a24.15,24.15,0,0,1,5,7l0,0a11.8,11.8,0,0,0-2,2.94A28.42,28.42,0,0,0,141,323a60.47,60.47,0,0,0-2.08,7.12c0,.11.14.14.16,0a29.7,29.7,0,0,1,2.48-7q.78-1.63,1.65-3.24a28,28,0,0,0,1.64-3,22.28,22.28,0,0,1,2,8.09c0,.11.18.09.17,0a28.23,28.23,0,0,0-3.92-12.42c1.07.46,2.14.9,3.17,1.45a18.27,18.27,0,0,1,3.63,2.55C149.93,316.58,150,316.45,150,316.38Z" style="fill:#263238"></path><path d="M137.15,317c-.52,1.72-1.18,3.4-1.66,5.14a20.22,20.22,0,0,0-.77,5.13c0,.05.08.05.09,0a49.86,49.86,0,0,1,2.5-10.22A.08.08,0,1,0,137.15,317Z" style="fill:#263238"></path><path d="M148.21,312.75a9.72,9.72,0,0,0-2.31-1.65,16.72,16.72,0,0,0-2.68-1c-.1,0-.13.14,0,.17a10.17,10.17,0,0,1,2.58,1.06,18.62,18.62,0,0,1,2.37,1.46A.06.06,0,0,0,148.21,312.75Z" style="fill:#263238"></path><path d="M118.56,291.92s1.67-20.42,16.86-27c12.68-5.53,19.94,8.72,11,17.44C139.14,289.37,127.51,286.19,118.56,291.92Z" style="fill:#90CAF9"></path><path d="M143.58,268.83a62.13,62.13,0,0,0-6.75,3.2,50.64,50.64,0,0,0-5.24,3.48c.25-.52.47-1.06.72-1.56.4-.79.82-1.56,1.29-2.31A21.8,21.8,0,0,1,137,267.4c.07-.07,0-.19-.12-.11a32.69,32.69,0,0,0-3.52,4.1,24.9,24.9,0,0,0-1.45,2.31,9.62,9.62,0,0,0-1,2.35l-.17.12a50.17,50.17,0,0,0-7.25,7.1c0-.2.09-.4.14-.59.28-1,.59-2,.92-3a25.37,25.37,0,0,1,2.74-6c.06-.09-.09-.17-.14-.08a47.4,47.4,0,0,0-3.18,5.81,21.15,21.15,0,0,0-1.05,3,13.66,13.66,0,0,0-.5,2.05c-.66.84-1.31,1.68-1.92,2.56-6.52,9.27-9.79,20.5-10.58,31.73a99.33,99.33,0,0,0-.17,10.06,64.36,64.36,0,0,0,.89,10.1.19.19,0,0,0,.37-.06c-.07-2.95-.38-5.89-.44-8.84s0-5.92.29-8.87a82.33,82.33,0,0,1,3.31-17.38,62.24,62.24,0,0,1,7.72-16.34c.64-.12,1.28-.3,1.9-.46s1.52-.39,2.28-.6a23.55,23.55,0,0,0,4.23-1.55.08.08,0,0,0-.09-.14,13.83,13.83,0,0,1-4.29,1.48c-1.19.23-2.42.39-3.61.66a56.69,56.69,0,0,1,3.53-4.64,26.38,26.38,0,0,0,8.63-.64,36.06,36.06,0,0,0,4.43-1.38c1.52-.59,3-1.34,4.46-2,.11,0,0-.21-.07-.15a25.23,25.23,0,0,1-8.76,2.87,53.43,53.43,0,0,1-8.19.67c1.08-1.23,2.19-2.44,3.38-3.57,4-3.8,8.73-7.29,14-9.11C143.73,269,143.68,268.79,143.58,268.83Z" style="fill:#263238"></path><path d="M131.23,268.89a24,24,0,0,0-1.87,2.73,14.93,14.93,0,0,0-1.34,3.16s0,.06.07,0c.5-1,.93-2,1.44-3a15,15,0,0,1,1.82-2.76C131.42,268.93,131.29,268.81,131.23,268.89Z" style="fill:#263238"></path><path d="M145.35,275.69a16.07,16.07,0,0,1-3.12,1.3,27,27,0,0,1-3.17.85,0,0,0,0,0,0,.09,14.92,14.92,0,0,0,3.28-.72,26.34,26.34,0,0,0,3.07-1.37C145.53,275.79,145.44,275.64,145.35,275.69Z" style="fill:#263238"></path><path d="M106.76,288.24c-.1.89-2.3-7.41-15.14-14.78C80,266.77,66.05,249.37,77.48,238.38,86.71,229.51,111,248.85,106.76,288.24Z" style="fill:#90CAF9"></path><path d="M115.6,335.82a229.93,229.93,0,0,0-2-25.82,116.07,116.07,0,0,0-5.43-23.11c-.95-2.69-2-5.35-3.23-8a17.22,17.22,0,0,0-.05-3.05c-.06-1.31-.18-2.61-.3-3.92s-.25-2.6-.41-3.9-.43-2.6-.48-3.9a.09.09,0,1,0-.17,0,26,26,0,0,1,.46,4.13q.15,1.89.21,3.78c0,1.27,0,2.53,0,3.79,0,.46,0,.94,0,1.43-1.2-2.55-2.5-5.06-3.9-7.51.87-5.32-.26-10.89-1.35-16.09,0-.11-.18-.06-.15,0a45.62,45.62,0,0,1,.84,8.25c0,2.18,0,4.37-.06,6.55-.31-.52-.61-1-.93-1.56q-2.49-4.08-5.33-8a12.68,12.68,0,0,0-.13-3.79,28.26,28.26,0,0,0-.93-4.15c-.41-1.36-.88-2.69-1.42-4s-1.3-2.62-1.83-4c0-.11-.22,0-.15.07a19.8,19.8,0,0,1,1.6,4,36,36,0,0,1,1,4c.28,1.35.5,2.71.69,4.07.12.91.2,1.84.36,2.76a98.65,98.65,0,0,0-9-10.47c-.08-.07-.19,0-.12.12a118.15,118.15,0,0,1,13.06,17.76l.41.72c-.71-.45-1.52-.8-2.18-1.17-1.25-.69-2.5-1.38-3.75-2.05l-3.64-2c-.62-.35-1.23-.71-1.87-1a14.34,14.34,0,0,1-2.17-1.21c-.1-.07-.2.08-.1.13,1.24.68,2.33,1.69,3.52,2.45s2.42,1.51,3.67,2.2c2.28,1.28,4.76,2.19,7,3.51q2.34,4.1,4.33,8.38-2.06-1.32-4.17-2.5c-.91-.51-1.83-1-2.75-1.5a13.61,13.61,0,0,1-2.59-1.56c-.08-.07-.19.05-.11.12A24.43,24.43,0,0,0,97,273.36c1.65,1,3.32,1.9,5,2.74q2.07,4.51,3.72,9.19c5.4,15.3,7.39,31.54,8.34,47.68.28,4.81.43,9.61.49,14.43s-.2,9.61-.19,14.42c0,.14.24.18.26,0,.57-4.26.67-8.6.86-12.9S115.69,340.19,115.6,335.82Z" style="fill:#263238"></path><path d="M92.27,266.54A58.68,58.68,0,0,1,85.45,263,71.54,71.54,0,0,1,79,258.9s-.08,0,0,.06a54.7,54.7,0,0,0,6.23,4.35,62.35,62.35,0,0,0,7,3.38C92.29,266.73,92.37,266.58,92.27,266.54Z" style="fill:#263238"></path><path d="M96,249.25c-.19-.75-.43-1.48-.68-2.21a.07.07,0,0,0,0-.09c-.16-.41-.33-.82-.5-1.23l-.06-.15-.09-.24s0,0,0,0,.09.28.13.42a2.17,2.17,0,0,0,.07.24,61.59,61.59,0,0,1,1.9,8.72c0,.09.16.09.15,0A28.91,28.91,0,0,0,96,249.25Z" style="fill:#263238"></path><polygon points="129.16 338.92 128.25 349.78 125.44 382.9 95.4 382.9 92.59 349.78 91.68 338.92 129.16 338.92" style="fill:#37474f"></polygon><polygon points="129.16 338.92 128.25 349.78 92.59 349.78 91.68 338.92 129.16 338.92" style="fill:#263238"></polygon><rect x="88.73" y="334.56" width="43.38" height="10.42" style="fill:#37474f"></rect></g><g id="freepik--Floor--inject-111"><polygon points="39.97 382.9 92.48 382.65 144.99 382.57 250 382.4 355.01 382.56 407.52 382.65 460.03 382.9 407.52 383.14 355.01 383.23 250 383.4 144.99 383.23 92.48 383.14 39.97 382.9" style="fill:#263238"></polygon></g><g id="freepik--Device--inject-111"><path d="M331.58,65.24H168.4a16.66,16.66,0,0,0-16.5,16.81V418a16.67,16.67,0,0,0,16.5,16.81H331.58A16.68,16.68,0,0,0,348.1,418V82.05A16.67,16.67,0,0,0,331.58,65.24Zm6.19,342.32c0,8.84-6.62,16-14.78,16H177c-8.18,0-14.8-7.15-14.8-16V94.79c0-18,6.62-18.89,14.8-18.89h29.25c1.7,0,3.09,1.93,3.09,4.32v1c0,5.61,3.07,5.63,6.83,5.63H283.8c3.8,0,6.85,0,6.85-5.63v-1c0-2.39,1.37-4.32,3.1-4.32H323c8.16,0,14.78,2.39,14.78,18.89Z" style="fill:#263238"></path><path d="M337.78,95.06V407.83c0,8.85-6.62,16-14.78,16H177c-8.18,0-14.8-7.15-14.8-16V95.06c0-18,6.62-18.89,14.8-18.89h29.25c1.7,0,3.09,1.93,3.09,4.33v1c0,5.61,3.07,5.63,6.83,5.63h67.62c3.8,0,6.85,0,6.85-5.63v-1c0-2.4,1.37-4.33,3.1-4.33H323C331.16,76.17,337.78,78.57,337.78,95.06Z" style="fill:#fff"></path><path d="M337.78,135V407.84c0,8.84-6.62,16-14.78,16H177c-8.18,0-14.8-7.15-14.8-16V203.12c38.43-4.93,77,51.19,112.78,34.65,32.73-15.16,31.26-63.08,43.41-84.93A41.46,41.46,0,0,1,337.78,135Z" style="fill:#90CAF9;opacity:0.1"></path><path d="M337.78,314.64v93.2c0,8.84-6.62,16-14.78,16H177c-8.18,0-14.8-7.15-14.8-16V286c20.85,36.43,44.17,46.92,65.42,41.53,24.24-6.14,58.94-37.54,91.59-26.63A37.74,37.74,0,0,1,337.78,314.64Z" style="fill:#90CAF9;opacity:0.2"></path><path d="M259.22,79.88H240.77a1.14,1.14,0,0,1-1.14-1.14h0a1.14,1.14,0,0,1,1.14-1.14h18.45a1.14,1.14,0,0,1,1.14,1.14h0A1.14,1.14,0,0,1,259.22,79.88Z" style="fill:#fff"></path><g id="freepik--u5Zjqx--inject-111"><path d="M201.21,82.92l-.28.28-.16.16a3.84,3.84,0,0,0-5.45,0l-.15-.16-.28-.28h0l0,0,.36-.32a3.92,3.92,0,0,1,.82-.52,4,4,0,0,1,1.1-.37c.18,0,.36,0,.55-.08h.47l.38,0a4.86,4.86,0,0,1,1,.24,5.29,5.29,0,0,1,.68.32,3.65,3.65,0,0,1,.65.46l.3.27Z" style="fill:#a6a6a6"></path><path d="M196.22,84.25l-.45-.44a3.11,3.11,0,0,1,1.82-.91,3.16,3.16,0,0,1,2.73.9l-.45.45a2.57,2.57,0,0,0-3.65,0Z" style="fill:#a6a6a6"></path><path d="M199.42,84.7l-.44.44a1.32,1.32,0,0,0-1.87,0l-.45-.44A1.94,1.94,0,0,1,199.42,84.7Z" style="fill:#a6a6a6"></path><path d="M198.44,85.54a.4.4,0,1,1-.4-.4A.4.4,0,0,1,198.44,85.54Z" style="fill:#a6a6a6"></path></g><path d="M173.66,83.78a1.17,1.17,0,1,1,1.16,1.16A1.16,1.16,0,0,1,173.66,83.78Z" style="fill:#a6a6a6"></path><path d="M177.32,83.78a1.17,1.17,0,1,1,1.17,1.16A1.17,1.17,0,0,1,177.32,83.78Z" style="fill:#a6a6a6"></path><path d="M181,83.78a1.17,1.17,0,1,1,1.16,1.16A1.16,1.16,0,0,1,181,83.78Z" style="fill:#a6a6a6"></path><path d="M184.65,83.78a1.17,1.17,0,1,1,1.17,1.16A1.17,1.17,0,0,1,184.65,83.78Z" style="fill:#a6a6a6"></path><path d="M188.32,83.78a1.17,1.17,0,1,1,1.16,1.16A1.16,1.16,0,0,1,188.32,83.78Z" style="fill:#a6a6a6"></path><path d="M324.61,86.32h-9.48V81.93h9.48Zm-9-.49h8.5V82.41h-8.5Z" style="fill:#a6a6a6"></path><rect x="315.92" y="82.67" width="6.11" height="2.9" style="fill:#a6a6a6"></rect><rect x="324.61" y="82.95" width="0.84" height="2.35" style="fill:#a6a6a6"></rect><path d="M216.31,161.31v2.79H201.05v-2.79h6.39V142a4.88,4.88,0,0,1-1.24,1.17,14.93,14.93,0,0,1-4.12,2.07,6.61,6.61,0,0,1-2,.36v-3a5.41,5.41,0,0,0,2.28-.58,16.93,16.93,0,0,0,2.34-1.35,19.52,19.52,0,0,0,1.87-1.45,3.81,3.81,0,0,0,.85-.9h3.15v22.93Z" style="fill:#a6a6a6"></path><path d="M242.39,150.9a16.84,16.84,0,0,1-.86,5.48,13.83,13.83,0,0,1-2.36,4.32,10.78,10.78,0,0,1-3.58,2.84,10.55,10.55,0,0,1-9,0A10.78,10.78,0,0,1,223,160.7a13.83,13.83,0,0,1-2.36-4.32,17.86,17.86,0,0,1,0-10.95,13.72,13.72,0,0,1,2.36-4.32,11,11,0,0,1,3.58-2.86,10.28,10.28,0,0,1,9,0,11,11,0,0,1,3.58,2.86,13.72,13.72,0,0,1,2.36,4.32A16.82,16.82,0,0,1,242.39,150.9Zm-3.11,0a14.83,14.83,0,0,0-.61-4.41,10.51,10.51,0,0,0-1.69-3.4,7.77,7.77,0,0,0-2.58-2.21,7.11,7.11,0,0,0-3.31-.78,7.2,7.2,0,0,0-3.36.78,7.7,7.7,0,0,0-2.59,2.21,10.93,10.93,0,0,0-1.69,3.4,16.28,16.28,0,0,0,0,8.83,10.93,10.93,0,0,0,1.69,3.4,7.5,7.5,0,0,0,2.59,2.18,7.32,7.32,0,0,0,3.36.77,7.23,7.23,0,0,0,3.31-.77,7.56,7.56,0,0,0,2.58-2.18,10.51,10.51,0,0,0,1.69-3.4A14.85,14.85,0,0,0,239.28,150.9Z" style="fill:#a6a6a6"></path><path d="M247.79,145.18v-4.41h2.62v4.41Zm0,18.92v-4.41h2.62v4.41Z" style="fill:#a6a6a6"></path><path d="M268.78,153.47a7.46,7.46,0,0,1,4.75,2.7,8.39,8.39,0,0,1,1.78,5.45,9.25,9.25,0,0,1-.74,3.72,8.17,8.17,0,0,1-2.12,2.88,9.77,9.77,0,0,1-3.29,1.85,13.21,13.21,0,0,1-4.25.65,12.55,12.55,0,0,1-6-1.37,9.32,9.32,0,0,1-3.88-3.81l2.12-1.94a7.31,7.31,0,0,0,2.88,3.16,9.29,9.29,0,0,0,4.87,1.17,7.92,7.92,0,0,0,5.31-1.65,5.82,5.82,0,0,0,1.94-4.7,6.24,6.24,0,0,0-2-4.91,8.53,8.53,0,0,0-5.85-1.8h-1.13v-2.61h1.22a7.91,7.91,0,0,0,5.31-1.6,5.27,5.27,0,0,0,1.85-4.17,5.49,5.49,0,0,0-.5-2.39,4.94,4.94,0,0,0-1.37-1.73,6.15,6.15,0,0,0-2.07-1.06A9,9,0,0,0,265,141a8.77,8.77,0,0,0-4.53,1.15,7.34,7.34,0,0,0-3,3.17l-2-1.89a7.27,7.27,0,0,1,1.53-2.14,10,10,0,0,1,2.25-1.64,12.23,12.23,0,0,1,2.8-1.06,13.19,13.19,0,0,1,3.15-.38,11.79,11.79,0,0,1,3.8.58,9.07,9.07,0,0,1,3,1.65,7.39,7.39,0,0,1,2,2.54,7.72,7.72,0,0,1,.69,3.29,8.3,8.3,0,0,1-.4,2.59,7.09,7.09,0,0,1-1.17,2.21,6.82,6.82,0,0,1-1.87,1.62A6.6,6.6,0,0,1,268.78,153.47Z" style="fill:#a6a6a6"></path><path d="M293.42,169.82v-8h-15v-2.7l16-20.72h2.07V159h4v2.79h-4v8ZM281.66,159h12.07V143.2Z" style="fill:#a6a6a6"></path><path d="M211.52,177.9h-3.31v8.49h-.92V177.9H204v-.81h7.54Z" style="fill:#a6a6a6"></path><path d="M213.46,186.52a1.89,1.89,0,0,1-1.65-.74,3.66,3.66,0,0,1-.55-2.21v-4h.89v3.86c0,1.54.53,2.32,1.59,2.32a2.54,2.54,0,0,0,.77-.13,2.49,2.49,0,0,0,.7-.38,3.24,3.24,0,0,0,.58-.59,2.9,2.9,0,0,0,.41-.78v-4.3h.89v5.68c0,.24.11.37.32.37v.78l-.26,0H217a.72.72,0,0,1-.51-.23.76.76,0,0,1-.19-.56v-.78a3.29,3.29,0,0,1-2.85,1.67Z" style="fill:#a6a6a6"></path><path d="M222.06,186.52a3.28,3.28,0,0,1-2.45-1.05,3.53,3.53,0,0,1-.71-1.14,3.71,3.71,0,0,1,0-2.73,3.55,3.55,0,0,1,.7-1.11,3.35,3.35,0,0,1,1.08-.76,3.49,3.49,0,0,1,2.74,0,3.15,3.15,0,0,1,1.06.77,3.55,3.55,0,0,1,.7,1.11,3.71,3.71,0,0,1,.25,1.34v.2a.49.49,0,0,1,0,.15h-5.84a2.79,2.79,0,0,0,.26,1,2.7,2.7,0,0,0,.55.81,2.57,2.57,0,0,0,.78.53,2.29,2.29,0,0,0,.94.19,2.37,2.37,0,0,0,.65-.09,2.52,2.52,0,0,0,.61-.25,1.83,1.83,0,0,0,.49-.39,1.48,1.48,0,0,0,.34-.5l.78.21a2.56,2.56,0,0,1-.45.69,3.39,3.39,0,0,1-1.5.89A3.83,3.83,0,0,1,222.06,186.52Zm2.51-3.9a2.68,2.68,0,0,0-.25-1,2.49,2.49,0,0,0-.55-.78,2.55,2.55,0,0,0-.77-.52,2.5,2.5,0,0,0-.94-.18,2.39,2.39,0,0,0-1.72.7,2.27,2.27,0,0,0-.54.78,2.77,2.77,0,0,0-.24,1Z" style="fill:#a6a6a6"></path><path d="M229.07,186.52a4.91,4.91,0,0,1-1.56-.26,3.7,3.7,0,0,1-1.31-.76l.41-.6a4.53,4.53,0,0,0,1.17.71,3.59,3.59,0,0,0,1.28.23,2.31,2.31,0,0,0,1.31-.33,1.08,1.08,0,0,0,.49-.95.8.8,0,0,0-.13-.48,1.06,1.06,0,0,0-.38-.34,3.16,3.16,0,0,0-.65-.25c-.25-.08-.55-.15-.89-.23s-.74-.19-1-.29a2.76,2.76,0,0,1-.71-.33,1.13,1.13,0,0,1-.42-.45,1.48,1.48,0,0,1-.14-.67,1.94,1.94,0,0,1,.21-.91,1.91,1.91,0,0,1,.55-.65,2.53,2.53,0,0,1,.81-.38,3.54,3.54,0,0,1,1-.13,3.87,3.87,0,0,1,1.43.25,2.85,2.85,0,0,1,1,.68l-.43.52a2.39,2.39,0,0,0-.92-.59,3.38,3.38,0,0,0-1.14-.2,2.69,2.69,0,0,0-.65.08,1.5,1.5,0,0,0-.53.23.93.93,0,0,0-.36.4,1.14,1.14,0,0,0-.13.57.93.93,0,0,0,.09.44.78.78,0,0,0,.3.3,3,3,0,0,0,.53.22l.78.2c.44.11.82.21,1.15.32a3.39,3.39,0,0,1,.83.36,1.46,1.46,0,0,1,.51.51,1.56,1.56,0,0,1,.17.74A1.76,1.76,0,0,1,231,186,3.1,3.1,0,0,1,229.07,186.52Z" style="fill:#a6a6a6"></path><path d="M236,186.52a3,3,0,0,1-1.31-.29,3.38,3.38,0,0,1-1-.78,3.63,3.63,0,0,1-.67-1.12,3.78,3.78,0,0,1-.25-1.33,3.91,3.91,0,0,1,.24-1.37,3.59,3.59,0,0,1,.65-1.13,2.94,2.94,0,0,1,1-.77,2.76,2.76,0,0,1,1.25-.28,2.7,2.7,0,0,1,1.54.45,3.47,3.47,0,0,1,1,1.09v-4.16h.89v8.41c0,.24.11.37.32.37v.78a1.45,1.45,0,0,1-.32,0,.87.87,0,0,1-.55-.2.65.65,0,0,1-.23-.49v-.67a3,3,0,0,1-1.1,1.06A2.94,2.94,0,0,1,236,186.52Zm.19-.78a2.26,2.26,0,0,0,.7-.13,2.83,2.83,0,0,0,.71-.37,2.52,2.52,0,0,0,.55-.53,1.47,1.47,0,0,0,.28-.66v-2.11a2.14,2.14,0,0,0-.38-.67,2.94,2.94,0,0,0-.57-.54,2.65,2.65,0,0,0-.68-.37,2.38,2.38,0,0,0-.72-.13,2.08,2.08,0,0,0-1,.24,2.57,2.57,0,0,0-.77.62,3,3,0,0,0-.49.89,3.21,3.21,0,0,0-.17,1,2.92,2.92,0,0,0,.2,1.05,2.77,2.77,0,0,0,.54.87,2.48,2.48,0,0,0,.8.59A2.29,2.29,0,0,0,236.18,185.74Z" style="fill:#a6a6a6"></path><path d="M243.05,186.52a2.32,2.32,0,0,1-1.62-.61,2.33,2.33,0,0,1-.48-.68,2.09,2.09,0,0,1-.17-.83,1.71,1.71,0,0,1,.21-.83,2,2,0,0,1,.59-.65,3.07,3.07,0,0,1,.91-.43,4.16,4.16,0,0,1,1.15-.15,6.41,6.41,0,0,1,1.06.09,4.75,4.75,0,0,1,1,.27v-.62a2,2,0,0,0-.51-1.43,1.87,1.87,0,0,0-1.42-.54,3.18,3.18,0,0,0-1.07.21,5.4,5.4,0,0,0-1.12.61l-.31-.59a4.56,4.56,0,0,1,2.57-.89,2.75,2.75,0,0,1,2,.72,2.66,2.66,0,0,1,.74,2v3.08c0,.24.11.37.33.37v.78a1.85,1.85,0,0,1-.35,0,.8.8,0,0,1-.53-.17.66.66,0,0,1-.2-.47l0-.54a3,3,0,0,1-1.18.94A3.64,3.64,0,0,1,243.05,186.52Zm.21-.68a3.18,3.18,0,0,0,1.28-.26,2.16,2.16,0,0,0,.88-.7.72.72,0,0,0,.18-.25.65.65,0,0,0,.06-.26v-1.11a5.82,5.82,0,0,0-.93-.26,5.23,5.23,0,0,0-1-.09,2.77,2.77,0,0,0-1.54.39,1.2,1.2,0,0,0-.59,1,1.45,1.45,0,0,0,.13.59,1.39,1.39,0,0,0,.34.48,1.52,1.52,0,0,0,.52.32A1.69,1.69,0,0,0,243.26,185.84Z" style="fill:#a6a6a6"></path><path d="M248.7,188.49l.2,0h.19a.92.92,0,0,0,.37-.06.77.77,0,0,0,.27-.29,4.42,4.42,0,0,0,.3-.64c.11-.28.26-.66.46-1.13l-3-6.83h.91l2.53,6,2.35-6h.85l-3.54,8.81a1.52,1.52,0,0,1-.48.66,1.34,1.34,0,0,1-.91.28H249l-.28,0Z" style="fill:#a6a6a6"></path><path d="M254.92,187.45l.22-1.1h-.3v-1.24h.87v1.24l-.33,1.1Z" style="fill:#a6a6a6"></path><path d="M267.41,183.33a3.15,3.15,0,0,1-1,2.26,3.22,3.22,0,0,1-1.05.68,3.26,3.26,0,0,1-1.29.25,3.32,3.32,0,0,1-1.35-.27,3,3,0,0,1-1.06-.76,3.65,3.65,0,0,1-.69-1.23,5.16,5.16,0,0,1-.25-1.63,11.19,11.19,0,0,1,.25-2.47,5.66,5.66,0,0,1,.7-1.75,3.17,3.17,0,0,1,1.08-1,3,3,0,0,1,1.41-.34,3.11,3.11,0,0,1,1.66.46,2.92,2.92,0,0,1,1.11,1.27l-.57.53a2.34,2.34,0,0,0-.87-1.07,2.27,2.27,0,0,0-1.33-.4,2.05,2.05,0,0,0-1.05.27,2.47,2.47,0,0,0-.81.8,4.37,4.37,0,0,0-.52,1.27,7,7,0,0,0-.19,1.72,2.48,2.48,0,0,1,1-1.23,2.82,2.82,0,0,1,1.59-.46,3.2,3.2,0,0,1,2.27.91,3.28,3.28,0,0,1,.68,1A3.23,3.23,0,0,1,267.41,183.33Zm-3.28,2.41a2.47,2.47,0,0,0,.94-.19,2.55,2.55,0,0,0,.77-.52,2.58,2.58,0,0,0,.53-.77,2.41,2.41,0,0,0,.19-.93,2.26,2.26,0,0,0-.2-.94,2.58,2.58,0,0,0-.53-.77,2.55,2.55,0,0,0-.77-.52,2.5,2.5,0,0,0-.94-.19,2.47,2.47,0,0,0-.94.19,2.55,2.55,0,0,0-.77.52,2.58,2.58,0,0,0-.53.77,2.43,2.43,0,0,0-.19.94,2.25,2.25,0,0,0,.2.93,2.67,2.67,0,0,0,.53.76,2.5,2.5,0,0,0,.78.53A2.41,2.41,0,0,0,264.13,185.74Z" style="fill:#a6a6a6"></path><path d="M280.73,186.39v-7.64l-3.39,5.91h-.54l-3.39-5.91v7.64h-.92v-9.3h.94l3.63,6.37,3.66-6.37h.93v9.3Z" style="fill:#a6a6a6"></path><path d="M285.45,186.52a2.32,2.32,0,0,1-1.62-.61,2.33,2.33,0,0,1-.48-.68,2.09,2.09,0,0,1-.17-.83,1.71,1.71,0,0,1,.21-.83,2,2,0,0,1,.59-.65,3.07,3.07,0,0,1,.91-.43,4.16,4.16,0,0,1,1.15-.15,6.41,6.41,0,0,1,1.06.09,4.75,4.75,0,0,1,1,.27v-.62a2,2,0,0,0-.51-1.43,1.87,1.87,0,0,0-1.42-.54,3.18,3.18,0,0,0-1.07.21,5.4,5.4,0,0,0-1.12.61l-.31-.59a4.56,4.56,0,0,1,2.57-.89,2.75,2.75,0,0,1,2,.72,2.66,2.66,0,0,1,.74,2v3.08c0,.24.11.37.33.37v.78a1.85,1.85,0,0,1-.35,0,.8.8,0,0,1-.53-.17.66.66,0,0,1-.2-.47l0-.54a3,3,0,0,1-1.18.94A3.64,3.64,0,0,1,285.45,186.52Zm.21-.68a3.18,3.18,0,0,0,1.28-.26,2.09,2.09,0,0,0,.88-.7.72.72,0,0,0,.18-.25.65.65,0,0,0,.06-.26v-1.11a5.82,5.82,0,0,0-.93-.26,5.23,5.23,0,0,0-1-.09,2.77,2.77,0,0,0-1.54.39,1.2,1.2,0,0,0-.59,1,1.45,1.45,0,0,0,.13.59,1.39,1.39,0,0,0,.34.48,1.52,1.52,0,0,0,.52.32A1.69,1.69,0,0,0,285.66,185.84Z" style="fill:#a6a6a6"></path><path d="M291.1,188.49l.2,0h.19a.92.92,0,0,0,.37-.06.7.7,0,0,0,.27-.29,4.42,4.42,0,0,0,.3-.64c.11-.28.26-.66.46-1.13l-3-6.83h.91l2.53,6,2.35-6h.85L293,188.37a1.52,1.52,0,0,1-.48.66,1.34,1.34,0,0,1-.91.28h-.25l-.28,0Z" style="fill:#a6a6a6"></path><path d="M315,407.59h0a10.5,10.5,0,0,1-10.51-10.51h0A10.51,10.51,0,0,1,315,386.57h0a10.51,10.51,0,0,1,10.5,10.51h0A10.5,10.5,0,0,1,315,407.59Z" style="fill:#a6a6a6"></path><rect x="308.54" y="393.92" width="12.81" height="7.83" style="fill:#fff"></rect><polygon points="318.13 393.92 311.76 393.92 312.39 392.42 317.5 392.42 318.13 393.92" style="fill:#fff"></polygon><path d="M317.92,397.83a3,3,0,1,1-3-3A3,3,0,0,1,317.92,397.83Z" style="fill:#a6a6a6"></path><path d="M317.25,397.83a2.31,2.31,0,1,1-2.3-2.3A2.3,2.3,0,0,1,317.25,397.83Z" style="fill:#fff"></path><rect x="319.37" y="394.58" width="1.23" height="0.71" style="fill:#a6a6a6"></rect><rect x="308.97" y="393.34" width="1.22" height="0.35" style="fill:#fff"></rect><path d="M184.17,407.59h0a10.5,10.5,0,0,1-10.51-10.51h0a10.51,10.51,0,0,1,10.51-10.51h0a10.52,10.52,0,0,1,10.51,10.51h0A10.51,10.51,0,0,1,184.17,407.59Z" style="fill:#a6a6a6"></path><rect x="181.53" y="395.58" width="5.15" height="8.61" style="fill:#fff"></rect><polygon points="188.1 391.59 188.1 393.58 186.79 395.13 181.42 395.13 180.12 393.58 180.12 391.59 188.1 391.59" style="fill:#fff"></polygon><rect x="180.12" y="389.98" width="7.98" height="1.14" style="fill:#fff"></rect><circle cx="249.91" cy="311.09" r="19.39" style="fill:#90CAF9"></circle><circle cx="249.91" cy="346.72" r="8.61" transform="translate(-146.43 506.67) rotate(-76.19)" style="fill:#90CAF9"></circle><path d="M254.39,370.08a4.48,4.48,0,1,1-4.48-4.48A4.48,4.48,0,0,1,254.39,370.08Z" style="fill:#90CAF9"></path><path d="M256.6,304.47v7.21h-2v-7.21a4.66,4.66,0,1,0-9.29,0v7.21h-2v-7.21a6.7,6.7,0,1,1,13.37,0Z" style="fill:#fff"></path><path d="M240.62,307.14V323h18.59V307.14Zm10.86,11.74h-3.31l.78-3.69a1.68,1.68,0,0,1-.78-1.4,1.66,1.66,0,0,1,3.31,0,1.68,1.68,0,0,1-.78,1.4Z" style="fill:#fff"></path></g><g id="freepik--Character--inject-111"><path d="M342.94,344.6l38.66-.54s-1.86-24.2-1.54-26c.4-2.28,27.83-109.82,27.83-109.82H371s-29,100.24-30.14,109.9C339.57,329.3,342.94,344.6,342.94,344.6Z" style="fill:#d3766a"></path><path d="M385.12,304.75s-42.89-4.67-43.58-5.19S371,208.39,371,208.39h36.9Z" style="fill:#37474f"></path><path d="M382.53,296.6c-11.48-2.07-23-3.69-34.66-4.79-.14,0-.18.19,0,.21,11.48,2.11,23.05,3.69,34.66,4.83A.13.13,0,0,0,382.53,296.6Z" style="fill:#263238"></path><path d="M372.19,208.26l0,.13,16.69,80.31,18.8-79.55c.08-.36.13-.63.15-.76l0-.13Z" style="fill:#263238"></path><path d="M319.48,443.33c2.12.65,62.36-.87,64.62-2.39.62-.4,1-17.68,1-27.62a7.77,7.77,0,0,0-4.09-7.23c-7.09-3.24-23.83-4.19-31.19.57-1.87,1.22-3.74,8.11-3.74,8.11l.36,7.06s-22.8,10.9-25.1,12.82S317.36,442.68,319.48,443.33Z" style="fill:#c7c7c7"></path><path d="M319.3,443.41c2.13.66,62.71-.87,65-2.39,1.05-.7,1.27-13.6,1.2-27.2l-39.41.88.36,7.1s-22.93,11-25.25,12.89S317.16,442.76,319.3,443.41Z" style="fill:#90CAF9"></path><path d="M320.1,441c10.15-.51,51.13-1.59,61.2-1.32.08,0,.09.06,0,.07-10,.72-51,1.47-61.19,1.41C319.89,441.13,319.89,441,320.1,441Z" style="fill:#263238"></path><path d="M344.94,419.58c4-.85,8.88-.36,12,2.41.12.11,0,.28-.17.24A56.2,56.2,0,0,0,345,420.09.26.26,0,0,1,344.94,419.58Z" style="fill:#263238"></path><path d="M342.1,421.39c4-.84,8.88-.35,12,2.42.12.1,0,.27-.17.24a55.58,55.58,0,0,0-11.81-2.15A.26.26,0,0,1,342.1,421.39Z" style="fill:#263238"></path><path d="M339.26,423.2c4-.84,8.88-.35,12,2.42.12.1,0,.27-.17.24a55.58,55.58,0,0,0-11.81-2.15A.26.26,0,0,1,339.26,423.2Z" style="fill:#263238"></path><path d="M336.42,425c4-.84,8.88-.35,12,2.42.12.1,0,.28-.17.24a55.58,55.58,0,0,0-11.81-2.15A.26.26,0,0,1,336.42,425Z" style="fill:#263238"></path><path d="M339.26,416.17c2.88,2.13,6.59,2.93,9.92,4.07.34.12.61-.21.61-.51.07,0,.12-.07.09-.15a21.28,21.28,0,0,0-6.38-9c-1.71-1.36-4.66-2.26-6.17-.05S337.58,414.93,339.26,416.17ZM338.17,413c-.82-4.36,3.95-2.18,5.16-1.13a23.06,23.06,0,0,1,2.18,2.24c1.42,1.62,2.59,3.42,3.84,5.17-1.6-.66-3.24-1.18-4.87-1.78C342.54,416.77,338.61,415.39,338.17,413Z" style="fill:#263238"></path><path d="M363.07,413.16c-1-2.47-4.1-2.2-6.05-1.22a21.29,21.29,0,0,0-8.1,7.49c-.05.07,0,.13.06.16a.49.49,0,0,0,.49.63c3.5-.43,7.28-.45,10.54-1.94C361.91,417.41,364,415.49,363.07,413.16Zm-8.43,5.33c-1.72.25-3.43.42-5.14.73,1.59-1.45,3.1-3,4.83-4.27a24.92,24.92,0,0,1,2.59-1.74c1.41-.77,6.52-1.93,4.82,2.18C360.81,417.65,356.68,418.19,354.64,418.49Z" style="fill:#263238"></path><path d="M357.42,442.84c13.6-.49,25.86-1.15,26.86-1.82s1.24-12.32,1.21-25.13Z" style="opacity:0.1"></path><rect x="360.39" y="352.6" width="8.17" height="51.96" transform="translate(-23.53 24.15) rotate(-3.68)" style="fill:#dbdbdb"></rect><path d="M356.26,363.65c-.43.31,2.44,5.15,3.54,5.59s6.16.62,8.14-.28c.94-.43,3-5.53,2.93-5.91S360,360.91,356.26,363.65Z" style="fill:#c7c7c7"></path><path d="M373.57,404.91c.43-.32-2.51-5.12-3.61-5.54s-6.17-.53-8.14.4c-.94.44-2.88,5.57-2.84,5.94S369.85,407.7,373.57,404.91Z" style="fill:#c7c7c7"></path><path d="M339.76,336.88c-2.15-.45,1.61,18.14,4.19,21.08,3,3.43,11.43,6.51,20,6.41,7.4-.1,14.89-4.44,17.68-7s3-23.94,2-23.5C379.47,335.79,366.82,342.54,339.76,336.88Z" style="fill:#a6a6a6"></path><path d="M369.08,444c2.13.67,64.22-.67,66.48-2.19.88-.56-2.37-59.4-2.37-59.4l-38.85.75,1.88,39.37S373.31,433.43,371,435.35,367,443.39,369.08,444Z" style="fill:#d3766a"></path><path d="M369.08,444c2.12.66,64.22-.68,66.49-2.19.47-.31-.29-18.19-1.08-34.25l-38.93,1.17.66,13.8S373.3,433.42,371,435.36,367,443.38,369.08,444Z" style="fill:#ebebeb"></path><path d="M369,444.05c2.13.65,64.33-.67,66.59-2.2,1.05-.7-.4-14-.52-27.64l-39.41,1,.39,7.1s-22.89,11-25.2,13S366.83,443.4,369,444.05Z" style="fill:#90CAF9"></path><path d="M369.77,441.6c10.14-.54,51.12-1.77,61.19-1.54.08,0,.08.06,0,.07-10,.75-51,1.65-61.19,1.64C369.56,441.77,369.55,441.61,369.77,441.6Z" style="fill:#263238"></path><path d="M394.52,420.12c4-.86,8.88-.38,12,2.37.12.11,0,.28-.17.24a56.23,56.23,0,0,0-11.82-2.1A.26.26,0,0,1,394.52,420.12Z" style="fill:#263238"></path><path d="M391.69,422c4-.87,8.88-.39,12,2.36.13.11,0,.28-.16.25a56.36,56.36,0,0,0-11.82-2.11A.25.25,0,0,1,391.69,422Z" style="fill:#263238"></path><path d="M388.86,423.77c4-.86,8.87-.39,12,2.37.12.1,0,.27-.16.24a56.36,56.36,0,0,0-11.82-2.11A.25.25,0,0,1,388.86,423.77Z" style="fill:#263238"></path><path d="M386,425.59c4-.86,8.88-.39,12,2.37.12.1,0,.28-.17.24a56.25,56.25,0,0,0-11.82-2.11A.25.25,0,0,1,386,425.59Z" style="fill:#263238"></path><path d="M388.83,416.74c2.89,2.11,6.6,2.9,9.93,4a.49.49,0,0,0,.61-.52.1.1,0,0,0,.09-.14,21.25,21.25,0,0,0-6.42-9c-1.7-1.35-4.66-2.24-6.16,0S387.15,415.5,388.83,416.74Zm-1.11-3.19c-.83-4.36,3.94-2.2,5.16-1.15a22,22,0,0,1,2.19,2.23c1.43,1.62,2.6,3.41,3.86,5.16-1.6-.66-3.25-1.17-4.88-1.76C392.12,417.32,388.18,416,387.72,413.55Z" style="fill:#263238"></path><path d="M412.63,413.63c-1-2.46-4.11-2.18-6.06-1.19A21.36,21.36,0,0,0,398.5,420c-.05.07,0,.13.06.16a.5.5,0,0,0,.5.63c3.49-.44,7.28-.48,10.53-2C411.49,417.89,413.61,416,412.63,413.63ZM404.21,419c-1.71.25-3.42.43-5.13.75a63.34,63.34,0,0,1,4.82-4.29,23.86,23.86,0,0,1,2.58-1.75c1.4-.78,6.51-1.95,4.83,2.16C410.38,418.13,406.25,418.69,404.21,419Z" style="fill:#263238"></path><path d="M372.19,208.25s1.07,17.64,5.29,31.57c.34,1.15.7,2.28,1.1,3.37a65.61,65.61,0,0,1,10.7,5.33s2.66,67.48,2.61,71.67c-.17,15.68,3.83,92,3.83,92l39-.37s-4-86.35-4.06-92.09c0-9.23-8.17-111.5-8.17-111.5Z" style="fill:#d3766a"></path><path d="M372.19,208.25s1.07,17.64,5.29,31.57c.34,1.15.7,2.29,1.09,3.37a65,65,0,0,1,10.71,5.33s0,51.55.2,57.58c0,0,40.28-1.08,43.4-2-1.18-15.38-3.62-37.48-6.24-60.2,0,0,3.75-20.78-4.17-35.69Z" style="fill:#37474f"></path><path d="M394.83,250.9c-1.7-1.18-3.52-2.17-5.32-3.18s-3.7-2-5.61-2.92a91.09,91.09,0,0,0-11.59-4.21c-.1,0-.16.13-.07.18,3.78,1.62,7.45,3.48,11.21,5.15,1.89.84,3.8,1.64,5.69,2.48s3.74,1.77,5.65,2.57A0,0,0,0,0,394.83,250.9Z" style="fill:#263238"></path><path d="M384.76,231.77c-.05-1.85-.18-3.7-.27-5.55-.22-4.37-.39-8.77-.8-13.13a.14.14,0,0,0-.27,0c-.05,3.38.08,6.77.15,10.15,0,1.69.08,3.39.13,5.08s.15,3.24,0,4.85c-.09,1.22-.36,3.59-2,3.73s-2.64-1.23-3-2.41a46.67,46.67,0,0,1-1.6-9.4c-.18-1.85-.44-9.65-.34-11.52,0-.12-.18-.12-.19,0-.1,1.91-.36,3.81-.43,5.73s-.07,3.82.06,5.72.27,3.66.54,5.47a19.57,19.57,0,0,0,1.18,4.84,4.27,4.27,0,0,0,2.94,2.74,3.31,3.31,0,0,0,.53.06c0,.39.07.78.1,1.17,0,.61.12,1.22.2,1.83a13.27,13.27,0,0,0,.38,1.77,6.42,6.42,0,0,0,.62,1.7c.05.08.16,0,.17-.06a7.82,7.82,0,0,0-.15-1.74c-.08-.6-.16-1.2-.28-1.79s-.23-1.16-.35-1.74c-.08-.38-.13-.78-.21-1.18a2.84,2.84,0,0,0,2.13-1.67A10.39,10.39,0,0,0,384.76,231.77Z" style="fill:#263238"></path><path d="M428.2,295.51q-17.51.09-35,1.62a.11.11,0,0,0,0,.22c11.66,0,23.33-.59,34.95-1.59C428.36,295.74,428.36,295.5,428.2,295.51Z" style="fill:#263238"></path><path d="M423.72,230.88a41.22,41.22,0,0,1-7.93.21,13.82,13.82,0,0,1-6.91-2.7c-4.37-3.4-6.29-8.95-7.47-14.15a.1.1,0,0,0-.19,0c.5,4.52,1.47,9.19,4.39,12.82a13.93,13.93,0,0,0,4.65,3.84,13.69,13.69,0,0,0,6.15,1.26,29.52,29.52,0,0,0,7.36-1A.16.16,0,0,0,423.72,230.88Z" style="fill:#263238"></path><path d="M391.25,157.39c-7.12,18.27-29.87,39.58-37.59,40.27-9,.81-32.25-9.52-41.25-22-2.13-3,16.93-17.09,20.15-14.88,6.62,4.53,19.08,10.68,20.15,10.77,2.13.16,16.27-10.92,27.56-18.83C394.32,142.85,394.09,150.11,391.25,157.39Z" style="fill:#d3766a"></path><path d="M315.16,178.94s-8.25-8.51-9.12-16.53c-.61-5.55,0-20.26,13.31-30.22,3.16-2.37,9.35-3.49,5.58,2.25-2.68,4.07-5.61,5.85-6.73,8.5,0,0,8-.49,10.28,2.77a73,73,0,0,1,5.26,8.95,15.84,15.84,0,0,1-1.59,1.13s1.81,3.25.56,8.75Z" style="fill:#d3766a"></path><path d="M334.85,126.48,344,155.53c.36.85,0,1.58-.88,1.63L327.9,158a2.46,2.46,0,0,1-2.2-1.44l-9.15-29.06a1.06,1.06,0,0,1,.88-1.62l15.22-.89A2.47,2.47,0,0,1,334.85,126.48Z" style="fill:#455a64"></path><path d="M333,126.57l9.15,29.05c.36.85,0,1.58-.88,1.63l-15.21.88a2.47,2.47,0,0,1-2.21-1.44l-9.14-29.06c-.37-.84,0-1.57.87-1.62l15.22-.89A2.46,2.46,0,0,1,333,126.57Z" style="fill:#37474f"></path><path d="M329,128.16a1.29,1.29,0,1,0,1.19-1.4A1.3,1.3,0,0,0,329,128.16Z" style="fill:#263238"></path><path d="M306.84,154.53c1.68-2.4,5.31-7.43,9.71-10.5,4.89-3.42,15.22-8.68,17.71-5.05,1.82,2.67-1.95,5-1.95,5s4.73-1.27,5.85,1.5c1,2.52-2,4.17-2,4.17s3-.28,3.52,2.33c.62,3.15-5.77,3.22-7.9,6.95C331.29,159.79,306.84,154.53,306.84,154.53Z" style="fill:#d3766a"></path><path d="M319.3,149.8A23.68,23.68,0,0,1,332.2,144c.12,0,.19.08.08.11a58.73,58.73,0,0,0-12.95,5.78A0,0,0,1,1,319.3,149.8Z" style="fill:#263238"></path><path d="M322.89,154.63a26.71,26.71,0,0,1,13.23-5.07c.12,0,.18.09.07.12a62.18,62.18,0,0,0-13.27,5S322.86,154.65,322.89,154.63Z" style="fill:#263238"></path><path d="M332.8,157.66c0,1.77,0,3.49-.2,5.19-.08.86-.21,1.7-.37,2.54a21.86,21.86,0,0,1-.69,2.51,9.38,9.38,0,0,0,1.82-5,14.88,14.88,0,0,0,0-2.67A11.05,11.05,0,0,0,332.8,157.66Z" style="fill:#263238"></path><path d="M381.59,176.3l-14-15.7s11.17-9.57,19.27-13.2,9.23,1.61,5.67,9.48S381.59,176.3,381.59,176.3Z" style="fill:#90CAF9"></path><path d="M383.83,149.64a1,1,0,0,1,1.19.43c.33.56.41,1.55.8,1.53.64,0,.53-1.22,1-1.95a1.16,1.16,0,0,1,1.18-.58,1.1,1.1,0,0,1,.82,1.52c-.31.9-1.75,1.26-1.49,1.79s1.16-.4,2-.47a1.22,1.22,0,0,1,1.38,1,1.16,1.16,0,0,1-1.17,1.47c-.84.05-1.87-.58-2.12-.38s.62,1,.86,1.72a1.17,1.17,0,0,1-.7,1.55,1.28,1.28,0,0,1-1.67-.85c-.25-.69.35-2.34,0-2.63s-1.11,1.12-2,1.46a1.3,1.3,0,0,1-1.63-.56,1.13,1.13,0,0,1,.64-1.59c.68-.29,2,0,2-.42s-1.23-.76-1.57-1.3A1.14,1.14,0,0,1,383.83,149.64Zm-2.24,26.66.42-.68c-.81-.77-2.14-1.32-2.68-1.85Zm3.15-7.31a2.1,2.1,0,0,0-3-.72c-1.19.69-2.21,2.59-2.75,2.14s.32-2.42-.07-3.89a2.11,2.11,0,0,0-3-1.58,2.22,2.22,0,0,0-1.31,2.81,10.8,10.8,0,0,0,1.49,2.41h0l3.09,3.45a.44.44,0,0,1-.05-.49c.4-.69,3.53-.21,4.66-.89a3.75,3.75,0,0,0,.5-.36,2.3,2.3,0,0,0,.74-1.24A2.43,2.43,0,0,0,384.74,169Z" style="opacity:0.1"></path><path d="M371.27,164.76l10.32,11.54s7.34-11.54,10.9-19.42c2.67-5.92,2.69-10.35-.91-10.63Z" style="opacity:0.1"></path><path d="M371.56,158.22a134.18,134.18,0,0,1,12.16,13.13s-.08.12-.11.1c-3.52-3.38-10-10.64-12.2-13.08C371.37,158.32,371.51,158.18,371.56,158.22Z" style="fill:#263238"></path><path d="M387.28,152.38s.05,0,.05,0c-.07,3-.05,9.81,4.57,9.22a10,10,0,0,0,4.89-2.66,25.48,25.48,0,0,0,3.77-4.13c1.24-1.66,2.35-3.5,3.47-5.24.05-.08.15,0,.11.07a42.45,42.45,0,0,1-3.08,5.5A22.65,22.65,0,0,1,397,159.7a9.86,9.86,0,0,1-5.21,2.62,3.73,3.73,0,0,1-3.9-2.67A16.56,16.56,0,0,1,387.28,152.38Z" style="fill:#263238"></path><path d="M425.21,221.84c-.16.15-55.79-5.84-56.31-6.52-.73-.95,15.14-57.58,20.07-66.87,2.11-4,12.17-4.53,16.15-.79,10,9.37,16.89,39.66,18.35,48.74C425.89,211.36,425.76,221.29,425.21,221.84Z" style="fill:#fff"></path><path d="M390.06,146.76,376.42,225l-10.51-5.4S383.33,162,384.47,158,387.94,148.26,390.06,146.76Z" style="fill:#90CAF9"></path><path d="M401.84,145.14c-.69-.28-1.29,30.88-1.37,36s-.58,45.68-.58,45.68l30.77-4s-5.45-36.09-15.22-58.13C409.93,152.28,406.94,147.27,401.84,145.14Z" style="fill:#90CAF9"></path><path d="M413.67,164.75a1.26,1.26,0,0,1-1.67-.85c-.24-.69.35-2.34,0-2.63s-1.11,1.13-2,1.46a1.26,1.26,0,0,1-1.62-.56,1.13,1.13,0,0,1,.63-1.59c.68-.28,2,0,2-.42s-1.24-.76-1.58-1.3a1.14,1.14,0,0,1,.42-1.75,1,1,0,0,1,1.2.43c.32.56.4,1.55.8,1.54s.45-.32.57-.73c.48,1,1,2,1.48,3.16-.23-.07-.4-.09-.48,0-.3.24.62,1,.87,1.72A1.16,1.16,0,0,1,413.67,164.75Zm-10.45,33.77c-.82.07-1.74.95-2,.47s1.18-.89,1.49-1.79a1.09,1.09,0,0,0-.82-1.51,1.13,1.13,0,0,0-1.17.57,5.86,5.86,0,0,0-.49,1.38s0,0,0,0c0,2,0,4-.07,6a1.25,1.25,0,0,0,1.29.24,1.17,1.17,0,0,0,.71-1.54c-.25-.72-1.17-1.48-.87-1.72s1.28.43,2.12.37a1.16,1.16,0,0,0,1.18-1.47A1.23,1.23,0,0,0,403.22,198.52Zm-14.47-44.23.41-2.36c-.78.15-1.6.9-1.83.45s1.18-.89,1.49-1.79a1.11,1.11,0,0,0-.69-1.49,31.18,31.18,0,0,0-2.23,4.7c.34.29-.26,1.94,0,2.63a1.28,1.28,0,0,0,1.67.85,1.17,1.17,0,0,0,.7-1.55c-.24-.72-1.16-1.47-.86-1.72S388.14,154.14,388.75,154.29Zm39.91,67.38c.23-.18,1.09.32,1.87.37-.08-.54-.21-1.34-.39-2.37-.69.23-1.35.76-1.54.37s.88-.81,1.35-1.52c-.09-.51-.19-1.06-.29-1.65h0a.94.94,0,0,0-.4-.13,1.14,1.14,0,0,0-1.17.57c-.48.74-.37,1.94-1,2-.4,0-.48-1-.8-1.53a1,1,0,0,0-1.2-.43,1.13,1.13,0,0,0-.41,1.74c.34.54,1.57,1,1.57,1.31s-1.35.13-2,.41a1.14,1.14,0,0,0-.63,1.6,1.28,1.28,0,0,0,1.62.56c.85-.34,1.55-1.82,2-1.46.24.21,0,1.11-.05,1.85l2.23-.29C429,222.42,428.41,221.88,428.66,221.67Zm-51.45-1.21.41-2.31c-.74.2-1.49.85-1.7.43s1.18-.89,1.49-1.8a1.1,1.1,0,0,0-.82-1.51,1.14,1.14,0,0,0-1.18.57c-.48.74-.37,1.94-1,2-.4,0-.48-1-.8-1.53a1,1,0,0,0-1.2-.44,1.14,1.14,0,0,0-.41,1.75c.34.54,1.57.94,1.57,1.31s-1.35.13-2,.41a1.13,1.13,0,0,0-.63,1.59,1.28,1.28,0,0,0,1.62.57c.85-.34,1.55-1.83,2-1.47s-.26,1.94,0,2.63a1.26,1.26,0,0,0,1.66.85,1.06,1.06,0,0,0,.64-.5h0a1.23,1.23,0,0,0,.13-.78v0a.9.9,0,0,0-.06-.22c-.25-.72-1.17-1.48-.87-1.72S376.65,220.3,377.21,220.46Zm31.38-44c-.39.78,0,2.53-.41,2.77s-1.12-1.49-1.94-2.09a1.55,1.55,0,0,0-2.32.38,1.77,1.77,0,0,0,.49,2.31c1,.76,3.25.53,3.12,1.27s-2.46,1.08-3.09,1.86a1.72,1.72,0,0,0,.18,2.56,1.6,1.6,0,0,0,2.32-.27c.67-.8.9-2.42,1.4-2.24s.41,1.81,1.07,2.76a1.59,1.59,0,0,0,2.56.33,1.67,1.67,0,0,0,.21-2.34c-.67-.92-2.35-1.37-2-2s1.89.75,3.17.48a1.52,1.52,0,0,0,1.2-2.05,1.57,1.57,0,0,0-1.51-1c-1.21,0-2.54.94-3,.22-.29-.46.81-1.26,1.23-2a1.36,1.36,0,0,0-.34-1.71A1.57,1.57,0,0,0,408.59,176.46Zm-4.66,38.1c.51.71,2.25,1.16,2.27,1.66s-1.85.3-2.76.74a1.55,1.55,0,0,0-.74,2.23,1.77,1.77,0,0,0,2.28.64c1.13-.53,2-2.63,2.57-2.17s-.19,2.68.21,3.61a1.73,1.73,0,0,0,2.35,1,1.59,1.59,0,0,0,.84-2.17c-.4-1-1.73-1.93-1.34-2.29s1.8.48,2.94.33a1.6,1.6,0,0,0,1.5-2.11,1.7,1.7,0,0,0-2-1.27c-1.12.16-2.3,1.45-2.67.82s1.54-1.32,1.89-2.59a1.52,1.52,0,0,0-1.25-2,1.58,1.58,0,0,0-1.57.89c-.59,1.05-.34,2.69-1.2,2.77-.55.05-.74-1.3-1.23-2a1.37,1.37,0,0,0-1.68-.49A1.56,1.56,0,0,0,403.93,214.56Zm-23.59-12,.51-3a2.09,2.09,0,0,0-.5-.08c-1.21,0-2.54.95-3,.22-.3-.46.8-1.25,1.23-2a1.37,1.37,0,0,0-.34-1.72,1.56,1.56,0,0,0-2.35.76c-.4.78,0,2.53-.42,2.77s-1.12-1.49-1.94-2.09a1.86,1.86,0,0,0-.8-.33l-.94,3.08c1,.69,3.16.49,3,1.21s-2.47,1.08-3.1,1.86a1.73,1.73,0,0,0,.18,2.56,1.61,1.61,0,0,0,2.32-.26c.67-.81.9-2.43,1.4-2.25s.41,1.81,1.07,2.76a1.61,1.61,0,0,0,2.57.34,1.69,1.69,0,0,0,.2-2.35c-.67-.92-2.35-1.37-2-2S379.15,202.57,380.34,202.55Zm41.46-1.4c.67-.44,3.24,1.42,4.56,1.34a3,3,0,0,0,.43-.06c-.3-1.41-.62-2.85-1-4.33-1.27.27-2.65,1.13-2.89.57s1.38-2,1.71-3.5a2.1,2.1,0,0,0-1.95-2.78,2.22,2.22,0,0,0-2.46,1.89c-.29,1.46.77,3.5-.17,3.67s-.95-2.49-2.36-3.48a2,2,0,0,0-3.05.66,2.07,2.07,0,0,0,.41,2.33c1,1.2,3.17,1.61,2.89,2.72-.18.7-1.93.34-3.06.62a1.8,1.8,0,0,0-1.36,1.86,2.07,2.07,0,0,0,2.83,1.6c1.11-.32,2.43-2.27,3.06-2.07s-.45,2.41-.31,3.74a2.06,2.06,0,0,0,2.45,1.9,2.32,2.32,0,0,0,1.79-2.53C423.19,203.65,421,201.69,421.8,201.15ZM379.66,174l-1.11,3.68h0a4.06,4.06,0,0,0,.4.89,2,2,0,0,0,3,.56,2.32,2.32,0,0,0,.44-3.07C381.86,175.21,380.45,174.6,379.66,174Zm5.08-5a2.1,2.1,0,0,0-3-.72,3.46,3.46,0,0,0-.46.32h0q-.58,2-1.26,4.17c1.12-.15,3,0,3.77-.53A2.27,2.27,0,0,0,384.74,169Z" style="opacity:0.1"></path><path d="M408.32,161c-3.89,23.8-14.83,41.19-19.37,41.94-12.21,2-32.86-17.95-39-22.64-2.49-1.89,17.82-18.89,20.22-16.56,5.66,5.48,13.16,12.82,13.57,12.82.86,0,3.77-5.92,14.41-19.89C407,145,409.91,151.23,408.32,161Z" style="fill:#d3766a"></path><path d="M338.62,140.76c-1.68,2.57,5,6.19,5,6.19a5.68,5.68,0,0,0-3.62,1.34c-1.72,1.59,0,5,0,5a7,7,0,0,0-3.59,2c-1.49,1.69-.22,5.35-.22,5.35a6.39,6.39,0,0,0-2,3.77c-.79,6.5,13.42,15.8,18,17.6l18.63-16.82s-6.91-15.45-12.54-19.44C355.18,143.53,341.21,136.83,338.62,140.76Z" style="fill:#d3766a"></path><path d="M343.73,146.91A51.49,51.49,0,0,1,355,152.42c.07,0,0,.17-.08.12-3.51-2.16-7.69-3.43-11.28-5.44A.1.1,0,0,1,343.73,146.91Z" style="fill:#263238"></path><path d="M340.3,153.06a10.85,10.85,0,0,1,2.47,1.42c.84.56,1.67,1.14,2.5,1.73,1.64,1.18,3.26,2.4,4.84,3.66.07.06,0,.18-.07.12-1.65-1.17-3.3-2.32-5-3.42l-2.55-1.64a12.79,12.79,0,0,1-2.35-1.63A.15.15,0,0,1,340.3,153.06Z" style="fill:#263238"></path><path d="M336.29,160.68a7.56,7.56,0,0,1,2.16,1.4c.74.55,1.48,1.1,2.23,1.64,1.49,1.09,3,2.18,4.5,3.22.08.05,0,.17-.07.12-1.56-1-3.13-2.07-4.68-3.13l-2.27-1.57a7.14,7.14,0,0,1-1.93-1.61S336.25,160.67,336.29,160.68Z" style="fill:#263238"></path><path d="M334.9,162.28a5.09,5.09,0,0,0-.87,3.43,7.18,7.18,0,0,0,1.35,3.36,30.81,30.81,0,0,0,4.77,5.36,44.67,44.67,0,0,0,5.66,4.4,39.8,39.8,0,0,0,6.31,3.37l-.05,0c1.4,1.15,10.6,9.1,12.07,9.7-1.3-1.26-10.45-8.81-11.78-10l0,0,0,0a48.24,48.24,0,0,1-6.09-3.57,54.45,54.45,0,0,1-5.57-4.35,37,37,0,0,1-4.83-5.11,7.09,7.09,0,0,1-1.46-3.1A5.15,5.15,0,0,1,334.9,162.28Z" style="fill:#263238"></path><path d="M405.2,181l-18.37-10.3s7.47-12.68,14-18.73,9.25-1.47,8.43,7.13S405.2,181,405.2,181Z" style="fill:#90CAF9"></path><path d="M409.06,160.58c-.07.66-.16,1.34-.25,2a1.27,1.27,0,0,1-.38-.44A1.13,1.13,0,0,1,409.06,160.58ZM393,169.69c.63-.09,1.5-1.06,1.83-.9s-.43,1.29-.45,2a1.13,1.13,0,0,0,1.19,1.23,1.3,1.3,0,0,0,1.18-1.26c0-.91-1-2.15-.54-2.39s1.67,1,2.4,1.08a1.25,1.25,0,0,0,1.45-1.17,1.17,1.17,0,0,0-1.12-1.28c-.76-.06-1.82.47-1.92.1s.91-1,1.2-1.79a1.15,1.15,0,0,0-.86-1.67,1.23,1.23,0,0,0-1.49.85c-.27.78.16,2-.37,2s-.33-1.44-1-2.09a1.1,1.1,0,0,0-1.72.13,1.15,1.15,0,0,0,.05,1.31c.47.74,1.62,1.13,1.38,1.71-.15.37-1.09,0-1.73.11a1,1,0,0,0-.88.91A1.14,1.14,0,0,0,393,169.69Zm10.92,7.83a1.77,1.77,0,0,0,.49,2.31,2.78,2.78,0,0,0,1,.43c.15-.68.41-1.8.72-3.2A1.51,1.51,0,0,0,403.92,177.52Z" style="opacity:0.1"></path><path d="M389.93,167.15a131.9,131.9,0,0,1,15.76,8.48s0,.15-.07.13c-4.43-2-12.94-6.82-15.78-8.43C389.79,167.3,389.88,167.12,389.93,167.15Z" style="fill:#263238"></path><path d="M403.42,180c.62.27,1.24.58,1.85.86L405,181c.43-2.84.95-5.65,1.57-8.45.3-1.4.61-2.79,1-4.18s.72-2.77,1.15-4.15c-.17,1.42-.38,2.84-.63,4.25s-.5,2.82-.78,4.23q-.85,4.22-2,8.37l-.06.21-.17-.11C404.55,180.76,404,180.4,403.42,180Z" style="fill:#263238"></path><path d="M407.7,169.53a13.21,13.21,0,0,1,.72-1.63,14,14,0,0,1,.94-1.51,10.77,10.77,0,0,1-.72,1.63A12.6,12.6,0,0,1,407.7,169.53Z" style="fill:#263238"></path><path d="M391.53,156.41c3.34.2,8.64-6.19,10.13-10.54.1-.3-.82-3.1-1.77-6.56-.57-2.1-1.15-4.45-1.53-6.63l-13.12,5.7a35.05,35.05,0,0,1,2.77,8.15,5.88,5.88,0,0,1,.07.92.74.74,0,0,0,0,.15C388.1,149.35,388.3,156.21,391.53,156.41Z" style="fill:#d3766a"></path><path d="M388.08,147.45v.14a7.35,7.35,0,0,0,1.42-.16c7.9-1.55,8.09-11.57,8-14.36l-3.27,1.42-9,3.89a35,35,0,0,1,2.77,8.16A4.71,4.71,0,0,1,388.08,147.45Z" style="fill:#263238"></path><path d="M377.51,113.19s-4.4,2.88-4.36,7.9,2.1,9.9,2.57,10.07S377.51,113.19,377.51,113.19Z" style="fill:#263238"></path><path d="M397.63,117.31c2.06,4.84,1,19.58-2.22,23.18-4.65,5.24-13.05,6.6-17.69.83-4.5-5.6-2.76-24.78.9-28.14C384,108.23,394.57,110.16,397.63,117.31Z" style="fill:#d3766a"></path><path d="M398.66,126.58c-.18,5.62-1.33,11.76-3.25,13.91-4.65,5.24-13.05,6.59-17.69.83-1.66-2.07-2.47-6-2.65-10.24.06.2.94,3.25,2.75,3.41a2.47,2.47,0,0,0,2.51-1.5l1.18-.35a8.58,8.58,0,0,0,6,1,10.14,10.14,0,0,0,7.13-4.67c1-1.81.9-2.48.9-2.48Z" style="fill:#263238;opacity:0.2"></path><path d="M385.07,127.68s.08.06.08.1c-.1,1,0,2.14.83,2.53,0,0,0,.06,0,.05C384.88,130.14,384.82,128.61,385.07,127.68Z" style="fill:#263238"></path><path d="M386,126.71c1.61,0,1.52,3.2,0,3.21S384.69,126.72,386,126.71Z" style="fill:#263238"></path><path d="M379.36,127.51s-.08,0-.08.09c0,1-.16,2.14-1.07,2.44a0,0,0,0,0,0,.06C379.32,130,379.52,128.46,379.36,127.51Z" style="fill:#263238"></path><path d="M378.5,126.45c-1.6-.17-1.81,3-.34,3.19S379.84,126.59,378.5,126.45Z" style="fill:#263238"></path><path d="M387.34,125.27a11.5,11.5,0,0,1-1.23-.47,2.17,2.17,0,0,1-1.16-.72.68.68,0,0,1,.13-.82,1.69,1.69,0,0,1,1.7-.13,2.47,2.47,0,0,1,1.4,1.12A.72.72,0,0,1,387.34,125.27Z" style="fill:#263238"></path><path d="M377.3,124.79a9.61,9.61,0,0,0,1.29-.29,2.16,2.16,0,0,0,1.26-.55.68.68,0,0,0,0-.83,1.68,1.68,0,0,0-1.67-.36,2.45,2.45,0,0,0-1.54.9A.72.72,0,0,0,377.3,124.79Z" style="fill:#263238"></path><path d="M385.33,137c-.24.22-.49.54-.85.56a2.7,2.7,0,0,1-1.07-.28s-.06,0,0,.05a1.35,1.35,0,0,0,1.25.57c.45-.06.68-.45.81-.86C385.44,137,385.37,136.93,385.33,137Z" style="fill:#263238"></path><path d="M384.37,134a3.41,3.41,0,0,1-2.3,1.44,4.16,4.16,0,0,1-1.22,0,2,2,0,0,1-.24,0l-.21,0a.26.26,0,0,1-.2-.23h0s0-.06,0-.1h0v-.09c0-.76.11-1.92.11-1.92-.28.13-1.73.73-1.7.33a51.54,51.54,0,0,1,1.61-10.22.1.1,0,0,1,.19,0c-.16,3.19-.88,6.33-1.09,9.54a6.06,6.06,0,0,1,1.62-.44c.11,0-.25,2.24-.22,2.59v0a4.74,4.74,0,0,0,3.54-1C384.36,133.81,384.43,133.88,384.37,134Z" style="fill:#263238"></path><path d="M381.28,135.28a3.85,3.85,0,0,0,1.63,1.16,1.7,1.7,0,0,0,1.07,0c.77-.24.77-.95.6-1.56a4.58,4.58,0,0,0-.39-.92A5.06,5.06,0,0,1,381.28,135.28Z" style="fill:#263238"></path><path d="M382.91,136.44a1.7,1.7,0,0,0,1.07,0c.77-.24.77-.95.6-1.56A1.83,1.83,0,0,0,382.91,136.44Z" style="fill:#ff98b9"></path><path d="M397.79,129.62c-1.66.46-3.41-4.54-3.9-6.46-.42-1.69-.82-7-.89-7.38s-7.3,4.5-11.41,3.18-6.78-5.13-6.79-6.87,5.27-6,9.72-6.1,10.34,5.73,10.34,5.73A21.87,21.87,0,0,1,393,109a4.86,4.86,0,0,1,3.39,3.09s-.49-2.59-.28-2.63,2.4,2.22,1.85,3.88c0,0,2.52,2.31,2.69,4.78S399.74,129.08,397.79,129.62Z" style="fill:#263238"></path><path d="M378.67,118a14.22,14.22,0,0,0,3.88,1.51,9.45,9.45,0,0,0,4.49-.59,14,14,0,0,0,4-2.22c1.06-.82,2-1.82,3.14-2.55.28-.19.59.22.41.47A14.88,14.88,0,0,1,386.9,120a8.57,8.57,0,0,1-8.25-1.92S378.65,118,378.67,118Z" style="fill:#263238"></path><path d="M395.81,129.42s2.87-5,5.09-4,.37,8-2,9.14a2.56,2.56,0,0,1-3.52-1.07Z" style="fill:#d3766a"></path><path d="M400.32,127.43s.05,0,0,.06a6.41,6.41,0,0,0-3,4.31,1.4,1.4,0,0,1,2.06-.57c.05,0,0,.1,0,.1a1.57,1.57,0,0,0-1.67.69,7.26,7.26,0,0,0-.7,1.46c-.07.17-.36.11-.31-.08v0C396.49,131.14,397.94,127.86,400.32,127.43Z" style="fill:#263238"></path></g></svg>