<svg xmlns="http://www.w3.org/2000/svg" xmlns:xlink="http://www.w3.org/1999/xlink" width="1920" zoomAndPan="magnify" viewBox="0 0 1440 809.999993" height="1080" preserveAspectRatio="xMidYMid meet" version="1.0"><defs><clipPath id="id1"><path d="M 0 0 L 145 0 L 145 127 L 0 127 Z M 0 0 " clip-rule="nonzero"/></clipPath><clipPath id="id2"><path d="M -242.585938 68.71875 L -90.527344 -219.925781 L 196.128906 -68.917969 L 44.070312 219.730469 Z M -242.585938 68.71875 " clip-rule="nonzero"/></clipPath><clipPath id="id3"><path d="M -242.585938 68.71875 L -90.527344 -219.925781 L 196.128906 -68.917969 L 44.070312 219.730469 Z M -242.585938 68.71875 " clip-rule="nonzero"/></clipPath><clipPath id="id4"><path d="M 107 15 L 109 15 L 109 18 L 107 18 Z M 107 15 " clip-rule="nonzero"/></clipPath><clipPath id="id5"><path d="M -242.585938 68.71875 L -90.527344 -219.925781 L 196.128906 -68.917969 L 44.070312 219.730469 Z M -242.585938 68.71875 " clip-rule="nonzero"/></clipPath><clipPath id="id6"><path d="M -242.585938 68.71875 L -90.527344 -219.925781 L 196.128906 -68.917969 L 44.070312 219.730469 Z M -242.585938 68.71875 " clip-rule="nonzero"/></clipPath><clipPath id="id7"><path d="M 3 118 L 4 118 L 4 119 L 3 119 Z M 3 118 " clip-rule="nonzero"/></clipPath><clipPath id="id8"><path d="M -242.585938 68.71875 L -90.527344 -219.925781 L 196.128906 -68.917969 L 44.070312 219.730469 Z M -242.585938 68.71875 " clip-rule="nonzero"/></clipPath><clipPath id="id9"><path d="M -242.585938 68.71875 L -90.527344 -219.925781 L 196.128906 -68.917969 L 44.070312 219.730469 Z M -242.585938 68.71875 " clip-rule="nonzero"/></clipPath><clipPath id="id10"><path d="M 0 69 L 1 69 L 1 75 L 0 75 Z M 0 69 " clip-rule="nonzero"/></clipPath><clipPath id="id11"><path d="M -242.585938 68.71875 L -90.527344 -219.925781 L 196.128906 -68.917969 L 44.070312 219.730469 Z M -242.585938 68.71875 " clip-rule="nonzero"/></clipPath><clipPath id="id12"><path d="M -242.585938 68.71875 L -90.527344 -219.925781 L 196.128906 -68.917969 L 44.070312 219.730469 Z M -242.585938 68.71875 " clip-rule="nonzero"/></clipPath><clipPath id="id13"><path d="M 32 5 L 36 5 L 36 9 L 32 9 Z M 32 5 " clip-rule="nonzero"/></clipPath><clipPath id="id14"><path d="M -242.585938 68.71875 L -90.527344 -219.925781 L 196.128906 -68.917969 L 44.070312 219.730469 Z M -242.585938 68.71875 " clip-rule="nonzero"/></clipPath><clipPath id="id15"><path d="M -242.585938 68.71875 L -90.527344 -219.925781 L 196.128906 -68.917969 L 44.070312 219.730469 Z M -242.585938 68.71875 " clip-rule="nonzero"/></clipPath><clipPath id="id16"><path d="M 28 35 L 30 35 L 30 37 L 28 37 Z M 28 35 " clip-rule="nonzero"/></clipPath><clipPath id="id17"><path d="M -242.585938 68.71875 L -90.527344 -219.925781 L 196.128906 -68.917969 L 44.070312 219.730469 Z M -242.585938 68.71875 " clip-rule="nonzero"/></clipPath><clipPath id="id18"><path d="M -242.585938 68.71875 L -90.527344 -219.925781 L 196.128906 -68.917969 L 44.070312 219.730469 Z M -242.585938 68.71875 " clip-rule="nonzero"/></clipPath><clipPath id="id19"><path d="M 35 66 L 37 66 L 37 68 L 35 68 Z M 35 66 " clip-rule="nonzero"/></clipPath><clipPath id="id20"><path d="M -242.585938 68.71875 L -90.527344 -219.925781 L 196.128906 -68.917969 L 44.070312 219.730469 Z M -242.585938 68.71875 " clip-rule="nonzero"/></clipPath><clipPath id="id21"><path d="M -242.585938 68.71875 L -90.527344 -219.925781 L 196.128906 -68.917969 L 44.070312 219.730469 Z M -242.585938 68.71875 " clip-rule="nonzero"/></clipPath><clipPath id="id22"><path d="M 50 54 L 52 54 L 52 56 L 50 56 Z M 50 54 " clip-rule="nonzero"/></clipPath><clipPath id="id23"><path d="M -242.585938 68.71875 L -90.527344 -219.925781 L 196.128906 -68.917969 L 44.070312 219.730469 Z M -242.585938 68.71875 " clip-rule="nonzero"/></clipPath><clipPath id="id24"><path d="M -242.585938 68.71875 L -90.527344 -219.925781 L 196.128906 -68.917969 L 44.070312 219.730469 Z M -242.585938 68.71875 " clip-rule="nonzero"/></clipPath><clipPath id="id25"><path d="M 43 35 L 45 35 L 45 37 L 43 37 Z M 43 35 " clip-rule="nonzero"/></clipPath><clipPath id="id26"><path d="M -242.585938 68.71875 L -90.527344 -219.925781 L 196.128906 -68.917969 L 44.070312 219.730469 Z M -242.585938 68.71875 " clip-rule="nonzero"/></clipPath><clipPath id="id27"><path d="M -242.585938 68.71875 L -90.527344 -219.925781 L 196.128906 -68.917969 L 44.070312 219.730469 Z M -242.585938 68.71875 " clip-rule="nonzero"/></clipPath><clipPath id="id28"><path d="M 66 0 L 69 0 L 69 2 L 66 2 Z M 66 0 " clip-rule="nonzero"/></clipPath><clipPath id="id29"><path d="M -242.585938 68.71875 L -90.527344 -219.925781 L 196.128906 -68.917969 L 44.070312 219.730469 Z M -242.585938 68.71875 " clip-rule="nonzero"/></clipPath><clipPath id="id30"><path d="M -242.585938 68.71875 L -90.527344 -219.925781 L 196.128906 -68.917969 L 44.070312 219.730469 Z M -242.585938 68.71875 " clip-rule="nonzero"/></clipPath><clipPath id="id31"><path d="M 57 6 L 58 6 L 58 7 L 57 7 Z M 57 6 " clip-rule="nonzero"/></clipPath><clipPath id="id32"><path d="M -242.585938 68.71875 L -90.527344 -219.925781 L 196.128906 -68.917969 L 44.070312 219.730469 Z M -242.585938 68.71875 " clip-rule="nonzero"/></clipPath><clipPath id="id33"><path d="M -242.585938 68.71875 L -90.527344 -219.925781 L 196.128906 -68.917969 L 44.070312 219.730469 Z M -242.585938 68.71875 " clip-rule="nonzero"/></clipPath><clipPath id="id34"><path d="M 32 48 L 35 48 L 35 51 L 32 51 Z M 32 48 " clip-rule="nonzero"/></clipPath><clipPath id="id35"><path d="M -242.585938 68.71875 L -90.527344 -219.925781 L 196.128906 -68.917969 L 44.070312 219.730469 Z M -242.585938 68.71875 " clip-rule="nonzero"/></clipPath><clipPath id="id36"><path d="M -242.585938 68.71875 L -90.527344 -219.925781 L 196.128906 -68.917969 L 44.070312 219.730469 Z M -242.585938 68.71875 " clip-rule="nonzero"/></clipPath><clipPath id="id37"><path d="M 66 27 L 68 27 L 68 29 L 66 29 Z M 66 27 " clip-rule="nonzero"/></clipPath><clipPath id="id38"><path d="M -242.585938 68.71875 L -90.527344 -219.925781 L 196.128906 -68.917969 L 44.070312 219.730469 Z M -242.585938 68.71875 " clip-rule="nonzero"/></clipPath><clipPath id="id39"><path d="M -242.585938 68.71875 L -90.527344 -219.925781 L 196.128906 -68.917969 L 44.070312 219.730469 Z M -242.585938 68.71875 " clip-rule="nonzero"/></clipPath><clipPath id="id40"><path d="M 29 24 L 35 24 L 35 30 L 29 30 Z M 29 24 " clip-rule="nonzero"/></clipPath><clipPath id="id41"><path d="M -242.585938 68.71875 L -90.527344 -219.925781 L 196.128906 -68.917969 L 44.070312 219.730469 Z M -242.585938 68.71875 " clip-rule="nonzero"/></clipPath><clipPath id="id42"><path d="M -242.585938 68.71875 L -90.527344 -219.925781 L 196.128906 -68.917969 L 44.070312 219.730469 Z M -242.585938 68.71875 " clip-rule="nonzero"/></clipPath><clipPath id="id43"><path d="M 28 46 L 30 46 L 30 48 L 28 48 Z M 28 46 " clip-rule="nonzero"/></clipPath><clipPath id="id44"><path d="M -242.585938 68.71875 L -90.527344 -219.925781 L 196.128906 -68.917969 L 44.070312 219.730469 Z M -242.585938 68.71875 " clip-rule="nonzero"/></clipPath><clipPath id="id45"><path d="M -242.585938 68.71875 L -90.527344 -219.925781 L 196.128906 -68.917969 L 44.070312 219.730469 Z M -242.585938 68.71875 " clip-rule="nonzero"/></clipPath><clipPath id="id46"><path d="M 0 85 L 1 85 L 1 90 L 0 90 Z M 0 85 " clip-rule="nonzero"/></clipPath><clipPath id="id47"><path d="M -242.585938 68.71875 L -90.527344 -219.925781 L 196.128906 -68.917969 L 44.070312 219.730469 Z M -242.585938 68.71875 " clip-rule="nonzero"/></clipPath><clipPath id="id48"><path d="M -242.585938 68.71875 L -90.527344 -219.925781 L 196.128906 -68.917969 L 44.070312 219.730469 Z M -242.585938 68.71875 " clip-rule="nonzero"/></clipPath><clipPath id="id49"><path d="M 0 19 L 2 19 L 2 21 L 0 21 Z M 0 19 " clip-rule="nonzero"/></clipPath><clipPath id="id50"><path d="M -242.585938 68.71875 L -90.527344 -219.925781 L 196.128906 -68.917969 L 44.070312 219.730469 Z M -242.585938 68.71875 " clip-rule="nonzero"/></clipPath><clipPath id="id51"><path d="M -242.585938 68.71875 L -90.527344 -219.925781 L 196.128906 -68.917969 L 44.070312 219.730469 Z M -242.585938 68.71875 " clip-rule="nonzero"/></clipPath><clipPath id="id52"><path d="M 55 21 L 57 21 L 57 22 L 55 22 Z M 55 21 " clip-rule="nonzero"/></clipPath><clipPath id="id53"><path d="M -242.585938 68.71875 L -90.527344 -219.925781 L 196.128906 -68.917969 L 44.070312 219.730469 Z M -242.585938 68.71875 " clip-rule="nonzero"/></clipPath><clipPath id="id54"><path d="M -242.585938 68.71875 L -90.527344 -219.925781 L 196.128906 -68.917969 L 44.070312 219.730469 Z M -242.585938 68.71875 " clip-rule="nonzero"/></clipPath><clipPath id="id55"><path d="M 17 55 L 19 55 L 19 58 L 17 58 Z M 17 55 " clip-rule="nonzero"/></clipPath><clipPath id="id56"><path d="M -242.585938 68.71875 L -90.527344 -219.925781 L 196.128906 -68.917969 L 44.070312 219.730469 Z M -242.585938 68.71875 " clip-rule="nonzero"/></clipPath><clipPath id="id57"><path d="M -242.585938 68.71875 L -90.527344 -219.925781 L 196.128906 -68.917969 L 44.070312 219.730469 Z M -242.585938 68.71875 " clip-rule="nonzero"/></clipPath><clipPath id="id58"><path d="M 90 26 L 92 26 L 92 28 L 90 28 Z M 90 26 " clip-rule="nonzero"/></clipPath><clipPath id="id59"><path d="M -242.585938 68.71875 L -90.527344 -219.925781 L 196.128906 -68.917969 L 44.070312 219.730469 Z M -242.585938 68.71875 " clip-rule="nonzero"/></clipPath><clipPath id="id60"><path d="M -242.585938 68.71875 L -90.527344 -219.925781 L 196.128906 -68.917969 L 44.070312 219.730469 Z M -242.585938 68.71875 " clip-rule="nonzero"/></clipPath><clipPath id="id61"><path d="M 96 11 L 98 11 L 98 12 L 96 12 Z M 96 11 " clip-rule="nonzero"/></clipPath><clipPath id="id62"><path d="M -242.585938 68.71875 L -90.527344 -219.925781 L 196.128906 -68.917969 L 44.070312 219.730469 Z M -242.585938 68.71875 " clip-rule="nonzero"/></clipPath><clipPath id="id63"><path d="M -242.585938 68.71875 L -90.527344 -219.925781 L 196.128906 -68.917969 L 44.070312 219.730469 Z M -242.585938 68.71875 " clip-rule="nonzero"/></clipPath><clipPath id="id64"><path d="M 123 19 L 128 19 L 128 25 L 123 25 Z M 123 19 " clip-rule="nonzero"/></clipPath><clipPath id="id65"><path d="M -242.585938 68.71875 L -90.527344 -219.925781 L 196.128906 -68.917969 L 44.070312 219.730469 Z M -242.585938 68.71875 " clip-rule="nonzero"/></clipPath><clipPath id="id66"><path d="M -242.585938 68.71875 L -90.527344 -219.925781 L 196.128906 -68.917969 L 44.070312 219.730469 Z M -242.585938 68.71875 " clip-rule="nonzero"/></clipPath><clipPath id="id67"><path d="M 17 110 L 18 110 L 18 112 L 17 112 Z M 17 110 " clip-rule="nonzero"/></clipPath><clipPath id="id68"><path d="M -242.585938 68.71875 L -90.527344 -219.925781 L 196.128906 -68.917969 L 44.070312 219.730469 Z M -242.585938 68.71875 " clip-rule="nonzero"/></clipPath><clipPath id="id69"><path d="M -242.585938 68.71875 L -90.527344 -219.925781 L 196.128906 -68.917969 L 44.070312 219.730469 Z M -242.585938 68.71875 " clip-rule="nonzero"/></clipPath></defs><rect x="-144" width="1728" fill="#ffffff" y="-80.999999" height="971.999992" fill-opacity="1"/><rect x="-144" width="1728" fill="#ffffff" y="-80.999999" height="971.999992" fill-opacity="1"/><rect x="-144" width="1728" fill="#ffffff" y="-80.999999" height="971.999992" fill-opacity="1"/><rect x="-144" width="1728" fill="#ffffff" y="-80.999999" height="971.999992" fill-opacity="1"/><g clip-path="url(#id1)"><g clip-path="url(#id2)"><g clip-path="url(#id3)"><path fill="#5271ff" d="M -69.617188 94.648438 C -86.570312 119.140625 -122.003906 128.703125 -148.949219 116.0625 C -175.898438 103.417969 -191.195312 70.058594 -183.191406 41.375 C -180.574219 31.976562 -175.835938 23.296875 -172.902344 14 C -166.585938 -6.050781 -169.007812 -27.667969 -167.273438 -48.617188 C -165.535156 -69.570312 -157.730469 -92.445312 -138.910156 -101.800781 C -122.886719 -109.773438 -103.296875 -105.746094 -86.460938 -111.789062 C -64.46875 -119.679688 -51.496094 -142.886719 -30.742188 -153.625 C -4.464844 -167.234375 31.910156 -155.074219 44.714844 -128.398438 C 49.90625 -117.582031 51.496094 -105.296875 56.734375 -94.5 C 65.5 -76.4375 83.214844 -64.734375 99.972656 -53.683594 C 116.734375 -42.632812 134.203125 -30.3125 141.933594 -11.78125 C 149.671875 6.753906 142.449219 32.875 122.972656 37.78125 C 115.9375 39.558594 108.542969 38.367188 101.285156 38.300781 C 76.21875 38.058594 51.539062 52.554688 39.535156 74.582031 C 32.773438 86.972656 29.796875 101.386719 21.4375 112.769531 C 13.082031 124.148438 -4.179688 131.285156 -15.125 122.371094 C -20.894531 117.675781 -23.152344 109.996094 -27.460938 103.929688 C -31.769531 97.871094 -58.570312 78.71875 -69.617188 94.648438 " fill-opacity="1" fill-rule="evenodd"/></g></g></g><g clip-path="url(#id4)"><g clip-path="url(#id5)"><g clip-path="url(#id6)"><path fill="#ffffff" d="M 107.34375 17.382812 C 107.78125 17.839844 108.371094 17.761719 108.710938 17.21875 C 108.867188 16.964844 108.730469 16.523438 108.722656 15.863281 C 108.070312 16.058594 107.554688 16.121094 107.164062 16.375 C 107.046875 16.457031 107.132812 17.167969 107.34375 17.382812 " fill-opacity="1" fill-rule="nonzero"/></g></g></g><g clip-path="url(#id7)"><g clip-path="url(#id8)"><g clip-path="url(#id9)"><path fill="#ffffff" d="M 3.890625 118.726562 C 3.890625 118.726562 3.878906 118.703125 3.886719 118.707031 L 3.882812 118.714844 L 3.890625 118.726562 " fill-opacity="1" fill-rule="nonzero"/></g></g></g><g clip-path="url(#id10)"><g clip-path="url(#id11)"><g clip-path="url(#id12)"><path fill="#ffffff" d="M -2 71.777344 C -2.621094 72.125 -3.238281 72.464844 -3.710938 72.71875 C -4.886719 71.242188 -5.34375 69.738281 -7.128906 69.457031 C -7.671875 70.285156 -8.234375 71.160156 -8.804688 72.027344 C -7.675781 72.992188 -6.71875 73.804688 -5.761719 74.625 L -5.921875 74.671875 C -5.085938 74.53125 -4.261719 74.339844 -3.429688 74.277344 C -2.867188 74.242188 -2.242188 74.582031 -1.753906 74.429688 C -1.148438 74.234375 -0.5625 73.773438 -0.136719 73.28125 C -0.105469 73.246094 -0.078125 73.191406 -0.0546875 73.136719 C -0.128906 73.203125 -0.199219 73.269531 -0.273438 73.335938 C -0.324219 73.265625 -0.386719 73.195312 -0.445312 73.121094 C -0.316406 73.117188 -0.183594 73.121094 -0.0546875 73.121094 C 0.0507812 72.820312 0.0078125 72.332031 -0.144531 72.078125 C -0.59375 71.34375 -1.300781 71.394531 -2 71.777344 " fill-opacity="1" fill-rule="nonzero"/></g></g></g><g clip-path="url(#id13)"><g clip-path="url(#id14)"><g clip-path="url(#id15)"><path fill="#ffffff" d="M 33.800781 8.628906 C 34.203125 8.722656 34.726562 8.300781 35.203125 8.113281 C 34.902344 7.390625 34.601562 6.660156 34.183594 5.640625 C 33.5 6.109375 32.90625 6.300781 32.699219 6.699219 C 32.335938 7.390625 32.902344 8.414062 33.800781 8.628906 " fill-opacity="1" fill-rule="nonzero"/></g></g></g><g clip-path="url(#id16)"><g clip-path="url(#id17)"><g clip-path="url(#id18)"><path fill="#ffffff" d="M 28.605469 36.25 C 28.796875 36.148438 29 36.066406 29.175781 35.929688 C 29.210938 35.90625 29.109375 35.707031 29.082031 35.59375 C 28.863281 35.691406 28.652344 35.792969 28.441406 35.890625 C 28.492188 36.007812 28.550781 36.128906 28.605469 36.25 " fill-opacity="1" fill-rule="nonzero"/></g></g></g><g clip-path="url(#id19)"><g clip-path="url(#id20)"><g clip-path="url(#id21)"><path fill="#ffffff" d="M 36.023438 67.589844 C 36.242188 67.546875 36.667969 67.511719 36.667969 67.453125 C 36.6875 67.101562 36.609375 66.75 36.554688 66.335938 C 36.238281 66.46875 35.882812 66.539062 35.878906 66.636719 C 35.855469 66.953125 35.964844 67.269531 36.023438 67.589844 " fill-opacity="1" fill-rule="nonzero"/></g></g></g><g clip-path="url(#id22)"><g clip-path="url(#id23)"><g clip-path="url(#id24)"><path fill="#ffffff" d="M 51.691406 54.441406 C 51 54.4375 50.617188 54.375 50.285156 54.476562 C 50.136719 54.527344 49.976562 55.078125 50.039062 55.125 C 50.304688 55.339844 50.699219 55.625 50.953125 55.554688 C 51.199219 55.488281 51.339844 55.011719 51.691406 54.441406 " fill-opacity="1" fill-rule="nonzero"/></g></g></g><g clip-path="url(#id25)"><g clip-path="url(#id26)"><g clip-path="url(#id27)"><path fill="#ffffff" d="M 44.316406 36.285156 C 44.449219 36.007812 44.425781 35.664062 44.460938 35.34375 C 44.019531 35.308594 43.757812 35.289062 43.5 35.265625 C 43.542969 35.621094 43.546875 35.988281 43.664062 36.3125 C 43.6875 36.382812 44.273438 36.382812 44.316406 36.285156 " fill-opacity="1" fill-rule="nonzero"/></g></g></g><g clip-path="url(#id28)"><g clip-path="url(#id29)"><g clip-path="url(#id30)"><path fill="#ffffff" d="M 66.917969 0.285156 C 66.902344 0.273438 66.746094 0.515625 66.65625 0.640625 C 67.167969 0.914062 67.292969 1.847656 68.4375 1.46875 C 68.070312 0.792969 67.445312 0.585938 66.917969 0.285156 " fill-opacity="1" fill-rule="nonzero"/></g></g></g><g clip-path="url(#id31)"><g clip-path="url(#id32)"><g clip-path="url(#id33)"><path fill="#ffffff" d="M 57.367188 6.320312 C 57.253906 6.359375 57.136719 6.398438 57.023438 6.429688 C 57.082031 6.585938 57.140625 6.753906 57.199219 6.914062 C 57.285156 6.835938 57.371094 6.753906 57.453125 6.667969 C 57.425781 6.554688 57.394531 6.441406 57.367188 6.320312 " fill-opacity="1" fill-rule="nonzero"/></g></g></g><g clip-path="url(#id34)"><g clip-path="url(#id35)"><g clip-path="url(#id36)"><path fill="#ffffff" d="M 33.082031 50.574219 C 33.972656 50.652344 34.328125 50.023438 34.4375 49.230469 C 34.457031 49.089844 34.453125 48.945312 34.472656 48.605469 C 33.527344 48.796875 32.824219 48.929688 32.097656 49.078125 C 31.859375 49.945312 32.207031 50.5 33.082031 50.574219 " fill-opacity="1" fill-rule="nonzero"/></g></g></g><g clip-path="url(#id37)"><g clip-path="url(#id38)"><g clip-path="url(#id39)"><path fill="#ffffff" d="M 66.371094 28.335938 C 66.382812 28.382812 66.691406 28.429688 66.734375 28.378906 C 66.871094 28.1875 66.949219 27.957031 67.054688 27.738281 C 66.804688 27.726562 66.558594 27.710938 66.304688 27.699219 C 66.324219 27.914062 66.3125 28.132812 66.371094 28.335938 " fill-opacity="1" fill-rule="nonzero"/></g></g></g><g clip-path="url(#id40)"><g clip-path="url(#id41)"><g clip-path="url(#id42)"><path fill="#ffffff" d="M 34.019531 29.78125 C 34.117188 27.636719 34.152344 26.953125 34.734375 26.136719 C 34.683594 26.089844 34.640625 26.042969 34.589844 25.992188 C 34.117188 25.464844 33.746094 24.832031 33.425781 24.152344 C 32.980469 24.632812 32.523438 25.175781 32.257812 25.867188 C 31.625 27.542969 29.460938 25.15625 29.136719 27.511719 C 31.972656 28.027344 31.972656 28.027344 34.019531 29.78125 " fill-opacity="1" fill-rule="nonzero"/></g></g></g><g clip-path="url(#id43)"><g clip-path="url(#id44)"><g clip-path="url(#id45)"><path fill="#ffffff" d="M 29.816406 46.722656 C 29.851562 46.601562 29.515625 46.402344 29.351562 46.242188 C 29.136719 46.523438 28.921875 46.800781 28.707031 47.085938 C 29.003906 47.296875 29.179688 47.425781 29.371094 47.554688 C 29.53125 47.28125 29.75 47.019531 29.816406 46.722656 " fill-opacity="1" fill-rule="nonzero"/></g></g></g><g clip-path="url(#id46)"><g clip-path="url(#id47)"><g clip-path="url(#id48)"><path fill="#ffffff" d="M 0.835938 89.285156 C 0.921875 86.8125 -0.441406 86.28125 -1.6875 85.457031 C -1.988281 85.910156 -2.261719 86.34375 -2.554688 86.785156 C -1.523438 87.546875 -0.648438 88.1875 0.835938 89.285156 " fill-opacity="1" fill-rule="nonzero"/></g></g></g><g clip-path="url(#id49)"><g clip-path="url(#id50)"><g clip-path="url(#id51)"><path fill="#ffffff" d="M 1.097656 20.621094 C 1.277344 20.539062 1.484375 20.085938 1.425781 20.023438 C 1.203125 19.761719 0.871094 19.585938 0.304688 19.191406 C 0.328125 19.859375 0.273438 20.222656 0.386719 20.523438 C 0.433594 20.636719 0.902344 20.703125 1.097656 20.621094 " fill-opacity="1" fill-rule="nonzero"/></g></g></g><g clip-path="url(#id52)"><g clip-path="url(#id53)"><g clip-path="url(#id54)"><path fill="#ffffff" d="M 55.886719 21.246094 C 55.875 21.367188 55.855469 21.484375 55.84375 21.609375 C 56.007812 21.570312 56.167969 21.535156 56.332031 21.496094 C 56.273438 21.394531 56.222656 21.273438 56.136719 21.195312 C 56.09375 21.164062 55.96875 21.226562 55.886719 21.246094 " fill-opacity="1" fill-rule="nonzero"/></g></g></g><g clip-path="url(#id55)"><g clip-path="url(#id56)"><g clip-path="url(#id57)"><path fill="#ffffff" d="M 17.484375 57.480469 C 17.523438 57.546875 17.746094 57.5 18.144531 57.511719 C 18.332031 57.160156 18.6875 56.710938 18.75 56.234375 C 18.785156 55.980469 18.304688 55.664062 18.058594 55.371094 C 17.703125 55.734375 17.242188 56.046875 17.042969 56.484375 C 16.9375 56.710938 17.300781 57.15625 17.484375 57.480469 " fill-opacity="1" fill-rule="nonzero"/></g></g></g><g clip-path="url(#id58)"><g clip-path="url(#id59)"><g clip-path="url(#id60)"><path fill="#ffffff" d="M 91.269531 26.707031 C 91.089844 26.617188 90.921875 26.519531 90.753906 26.421875 C 90.734375 26.660156 90.691406 26.902344 90.71875 27.136719 C 90.722656 27.199219 90.933594 27.242188 91.050781 27.296875 C 91.121094 27.101562 91.195312 26.90625 91.269531 26.707031 " fill-opacity="1" fill-rule="nonzero"/></g></g></g><g clip-path="url(#id61)"><g clip-path="url(#id62)"><g clip-path="url(#id63)"><path fill="#ffffff" d="M 96.949219 11.054688 C 96.933594 11.175781 96.855469 11.324219 96.898438 11.398438 C 96.949219 11.484375 97.109375 11.515625 97.21875 11.574219 C 97.238281 11.457031 97.253906 11.328125 97.273438 11.203125 C 97.164062 11.152344 97.058594 11.105469 96.949219 11.054688 " fill-opacity="1" fill-rule="nonzero"/></g></g></g><g clip-path="url(#id64)"><g clip-path="url(#id65)"><g clip-path="url(#id66)"><path fill="#ffffff" d="M 127.023438 22.605469 C 127.082031 20.839844 126.058594 20.058594 124.695312 19.566406 C 124.925781 20.578125 125.398438 21.558594 124.222656 22.488281 C 123.53125 23.035156 124.109375 23.761719 124.851562 24.371094 C 125.589844 23.765625 126.324219 23.171875 127.023438 22.605469 " fill-opacity="1" fill-rule="nonzero"/></g></g></g><g clip-path="url(#id67)"><g clip-path="url(#id68)"><g clip-path="url(#id69)"><path fill="#ffffff" d="M 17.238281 111.019531 C 17.4375 111.101562 17.640625 111.191406 17.84375 111.277344 C 17.886719 111.066406 17.949219 110.859375 17.957031 110.644531 C 17.960938 110.597656 17.679688 110.472656 17.636719 110.511719 C 17.476562 110.65625 17.367188 110.847656 17.238281 111.019531 " fill-opacity="1" fill-rule="nonzero"/></g></g></g></svg>