<svg xmlns="http://www.w3.org/2000/svg" xmlns:xlink="http://www.w3.org/1999/xlink" width="220" zoomAndPan="magnify" viewBox="0 0 165 165.000002" height="220" preserveAspectRatio="xMidYMid meet" version="1.0"><defs><clipPath id="id1"><path d="M 0.496094 0 L 164.503906 0 L 164.503906 164.007812 L 0.496094 164.007812 Z M 0.496094 0 " clip-rule="nonzero"/></clipPath><clipPath id="id2"><path d="M 0.496094 2 L 101 2 L 101 161 L 0.496094 161 Z M 0.496094 2 " clip-rule="nonzero"/></clipPath><clipPath id="id3"><path d="M 0.496094 46 L 2 46 L 2 47 L 0.496094 47 Z M 0.496094 46 " clip-rule="nonzero"/></clipPath></defs><g clip-path="url(#id1)"><path fill="#ffffff" d="M 0.496094 0 L 164.503906 0 L 164.503906 171.460938 L 0.496094 171.460938 Z M 0.496094 0 " fill-opacity="1" fill-rule="nonzero"/><path fill="#ffffff" d="M 0.496094 0 L 164.503906 0 L 164.503906 164.007812 L 0.496094 164.007812 Z M 0.496094 0 " fill-opacity="1" fill-rule="nonzero"/><path fill="#ffffff" d="M 0.496094 0 L 164.503906 0 L 164.503906 164.007812 L 0.496094 164.007812 Z M 0.496094 0 " fill-opacity="1" fill-rule="nonzero"/><path fill="#ffffff" d="M 0.496094 0 L 164.503906 0 L 164.503906 164.007812 L 0.496094 164.007812 Z M 0.496094 0 " fill-opacity="1" fill-rule="nonzero"/></g><g clip-path="url(#id2)"><path fill="#143ef2" d="M -31.347656 83.582031 C -46.28125 81.769531 -58.894531 68.15625 -59.585938 53.105469 C -60.28125 38.054688 -48.976562 23.332031 -34.277344 20.148438 C -29.464844 19.105469 -24.472656 19.179688 -19.625 18.296875 C -9.179688 16.394531 -0.09375 10.210938 9.675781 6.046875 C 19.445312 1.882812 31.5 -0.0195312 40.113281 6.199219 C 47.445312 11.496094 50.257812 21.21875 56.917969 27.335938 C 65.621094 35.320312 79.042969 35.65625 88.726562 42.417969 C 100.992188 50.976562 104.121094 70.132812 95.214844 82.164062 C 91.605469 87.039062 86.488281 90.648438 82.898438 95.542969 C 76.890625 103.730469 75.832031 114.425781 74.839844 124.535156 C 73.847656 134.652344 72.453125 145.378906 65.996094 153.214844 C 59.535156 161.054688 46.164062 163.980469 39.386719 156.417969 C 36.9375 153.683594 35.730469 150.089844 34.050781 146.824219 C 28.257812 135.542969 15.972656 127.910156 3.304688 127.730469 C -3.820312 127.625 -10.960938 129.691406 -18.015625 128.636719 C -25.0625 127.578125 -32.316406 121.53125 -30.910156 114.527344 C -30.167969 110.835938 -27.269531 108.011719 -25.574219 104.652344 C -23.878906 101.292969 -21.632812 84.769531 -31.347656 83.582031 " fill-opacity="1" fill-rule="evenodd"/></g><path fill="#ffffff" d="M 63.292969 53.980469 C 63.390625 53.996094 63.519531 53.867188 63.636719 53.800781 C 63.523438 53.671875 63.414062 53.546875 63.296875 53.417969 C 63.210938 53.511719 63.121094 53.601562 63.03125 53.695312 L 63.035156 53.699219 C 63.03125 53.699219 63.03125 53.695312 63.03125 53.695312 C 63.117188 53.796875 63.191406 53.964844 63.292969 53.980469 " fill-opacity="1" fill-rule="nonzero"/><path fill="#ffffff" d="M 4.21875 69.429688 C 4.222656 69.375 4.230469 69.316406 4.234375 69.261719 C 4.261719 69.273438 4.289062 69.285156 4.316406 69.296875 C 4.414062 69.097656 4.507812 68.898438 4.585938 68.6875 C 4.597656 68.664062 4.449219 68.550781 4.445312 68.554688 C 4.25 68.730469 4.042969 68.90625 3.894531 69.113281 C 3.855469 69.164062 4.007812 69.351562 4.070312 69.472656 C 4.117188 69.453125 4.175781 69.445312 4.21875 69.429688 " fill-opacity="1" fill-rule="nonzero"/><path fill="#ffffff" d="M 67.890625 62.660156 C 67.914062 62.640625 67.878906 62.496094 67.863281 62.496094 C 67.75 62.488281 67.613281 62.460938 67.527344 62.511719 C 67.425781 62.570312 67.355469 62.683594 67.277344 62.777344 C 67.382812 62.820312 67.488281 62.871094 67.589844 62.859375 C 67.699219 62.847656 67.800781 62.742188 67.890625 62.660156 " fill-opacity="1" fill-rule="nonzero"/><path fill="#ffffff" d="M 19.148438 78.035156 C 19.214844 78.011719 19.316406 78.003906 19.339844 77.957031 C 19.460938 77.730469 19.566406 77.496094 19.660156 77.257812 C 19.671875 77.230469 19.527344 77.113281 19.519531 77.117188 C 19.328125 77.296875 19.117188 77.46875 18.96875 77.679688 C 18.933594 77.730469 19.082031 77.914062 19.148438 78.035156 " fill-opacity="1" fill-rule="nonzero"/><path fill="#ffffff" d="M 44.675781 102.425781 C 44.734375 102.34375 44.726562 102.132812 44.65625 102.058594 C 44.375 101.742188 44 101.765625 43.71875 102.085938 C 43.671875 102.140625 43.652344 102.214844 43.617188 102.277344 C 43.660156 102.339844 43.6875 102.410156 43.738281 102.457031 C 44.054688 102.761719 44.4375 102.761719 44.675781 102.425781 " fill-opacity="1" fill-rule="nonzero"/><path fill="#ffffff" d="M 66.867188 150.957031 C 66.644531 151.015625 66.382812 151.238281 66.308594 151.449219 C 66.222656 151.683594 66.597656 151.960938 66.929688 151.964844 C 67.183594 151.617188 67.429688 151.269531 67.671875 150.910156 C 67.394531 150.90625 67.121094 150.886719 66.867188 150.957031 " fill-opacity="1" fill-rule="nonzero"/><path fill="#ffffff" d="M 44.824219 144.605469 C 44.722656 144.90625 44.898438 145.152344 45.21875 145.175781 C 45.367188 145.1875 45.535156 145.023438 45.828125 144.863281 C 45.585938 144.617188 45.4375 144.402344 45.230469 144.285156 C 45.167969 144.253906 44.871094 144.457031 44.824219 144.605469 " fill-opacity="1" fill-rule="nonzero"/><path fill="#ffffff" d="M 30.375 80.167969 C 30.34375 80.621094 29.589844 80.730469 29.984375 81.371094 C 30.140625 81.355469 30.277344 81.363281 30.410156 81.332031 C 30.542969 81.296875 30.679688 81.25 30.796875 81.175781 C 31.308594 80.859375 31.253906 80.679688 30.375 80.167969 " fill-opacity="1" fill-rule="nonzero"/><path fill="#ffffff" d="M 85.738281 45.375 C 85.832031 45.359375 85.898438 45.191406 85.980469 45.09375 C 85.839844 44.988281 85.710938 44.855469 85.554688 44.792969 C 85.507812 44.777344 85.386719 44.96875 85.042969 45.34375 C 85.347656 45.367188 85.550781 45.410156 85.738281 45.375 " fill-opacity="1" fill-rule="nonzero"/><path fill="#ffffff" d="M 31.425781 109.601562 C 31.476562 109.804688 31.789062 109.941406 31.984375 110.109375 C 32.238281 109.804688 32.492188 109.496094 32.851562 109.070312 C 32.480469 108.875 32.253906 108.652344 32.027344 108.652344 C 31.632812 108.652344 31.308594 109.148438 31.425781 109.601562 " fill-opacity="1" fill-rule="nonzero"/><path fill="#ffffff" d="M 5.550781 46.742188 C 5.261719 47.082031 5.5 47.386719 5.679688 47.683594 C 5.75 47.804688 5.863281 47.898438 6.039062 48.09375 C 6.203125 47.890625 6.261719 47.84375 6.285156 47.785156 C 6.453125 47.335938 6.410156 46.9375 5.945312 46.695312 C 5.839844 46.742188 5.726562 46.789062 5.621094 46.832031 C 5.597656 46.804688 5.570312 46.773438 5.550781 46.742188 " fill-opacity="1" fill-rule="nonzero"/><path fill="#ffffff" d="M 17.859375 113.792969 C 17.953125 113.855469 18.035156 113.925781 18.136719 113.972656 C 18.15625 113.984375 18.222656 113.890625 18.265625 113.851562 C 18.171875 113.777344 18.078125 113.707031 17.984375 113.636719 C 17.941406 113.6875 17.902344 113.738281 17.859375 113.792969 " fill-opacity="1" fill-rule="nonzero"/><path fill="#ffffff" d="M 72.855469 35.988281 C 72.769531 35.90625 72.660156 35.746094 72.601562 35.765625 C 72.457031 35.804688 72.34375 35.929688 72.214844 36.015625 C 72.328125 36.078125 72.4375 36.136719 72.546875 36.191406 C 72.652344 36.121094 72.75 36.054688 72.855469 35.988281 " fill-opacity="1" fill-rule="nonzero"/><path fill="#ffffff" d="M 5.605469 124.507812 C 5.675781 124.597656 5.792969 124.78125 5.816406 124.765625 C 5.980469 124.691406 6.117188 124.574219 6.289062 124.453125 C 6.15625 124.339844 6.039062 124.199219 5.996094 124.21875 C 5.847656 124.28125 5.734375 124.40625 5.605469 124.507812 " fill-opacity="1" fill-rule="nonzero"/><g clip-path="url(#id3)"><path fill="#ffffff" d="M 0.636719 46.328125 C 0.683594 46.445312 0.753906 46.554688 0.820312 46.664062 C 0.917969 46.574219 1.011719 46.484375 1.113281 46.382812 C 1.007812 46.320312 0.910156 46.246094 0.792969 46.210938 C 0.757812 46.199219 0.628906 46.3125 0.636719 46.328125 " fill-opacity="1" fill-rule="nonzero"/></g><path fill="#ffffff" d="M 5.550781 46.742188 C 5.570312 46.773438 5.597656 46.804688 5.621094 46.832031 C 5.726562 46.789062 5.839844 46.742188 5.945312 46.695312 C 5.90625 46.648438 5.855469 46.558594 5.824219 46.5625 C 5.714844 46.585938 5.609375 46.640625 5.5 46.683594 C 5.519531 46.703125 5.53125 46.722656 5.550781 46.742188 " fill-opacity="1" fill-rule="nonzero"/><path fill="#ffffff" d="M 57.816406 68.589844 C 57.925781 68.804688 58.144531 68.96875 58.320312 69.152344 C 58.445312 69.007812 58.574219 68.871094 58.792969 68.628906 C 58.539062 68.441406 58.359375 68.261719 58.140625 68.179688 C 58.085938 68.15625 57.777344 68.519531 57.816406 68.589844 " fill-opacity="1" fill-rule="nonzero"/><path fill="#ffffff" d="M 12.417969 59.503906 C 12.582031 59.320312 12.8125 59.167969 12.804688 59.03125 C 12.792969 58.886719 12.578125 58.699219 12.410156 58.636719 C 12.132812 58.542969 11.824219 58.855469 11.949219 59.097656 C 12.027344 59.253906 12.222656 59.347656 12.417969 59.503906 " fill-opacity="1" fill-rule="nonzero"/><path fill="#ffffff" d="M 18.304688 41.429688 C 18.464844 41.398438 18.597656 41.269531 18.867188 41.101562 C 18.582031 40.949219 18.398438 40.765625 18.28125 40.804688 C 18.152344 40.847656 18.074219 41.078125 18.007812 41.246094 C 18 41.273438 18.21875 41.449219 18.304688 41.429688 " fill-opacity="1" fill-rule="nonzero"/><path fill="#ffffff" d="M 12.78125 14.195312 C 12.714844 14.089844 12.664062 13.914062 12.585938 13.898438 C 12.476562 13.878906 12.34375 13.980469 12.21875 14.027344 C 12.3125 14.167969 12.402344 14.304688 12.496094 14.445312 C 12.589844 14.359375 12.6875 14.277344 12.78125 14.195312 " fill-opacity="1" fill-rule="nonzero"/><path fill="#ffffff" d="M 31.347656 7.945312 C 29.554688 7.4375 29.464844 7.472656 29.527344 8.699219 C 30.222656 8.699219 30.871094 8.660156 31.347656 7.945312 " fill-opacity="1" fill-rule="nonzero"/><path fill="#ffffff" d="M 4.445312 26.964844 C 4.511719 27.167969 4.820312 27.40625 5.03125 27.414062 C 5.199219 27.417969 5.523438 27.082031 5.503906 26.921875 C 5.484375 26.722656 5.195312 26.546875 4.917969 26.246094 C 4.886719 26.292969 4.855469 26.335938 4.828125 26.375 C 4.828125 26.375 4.828125 26.371094 4.828125 26.367188 C 4.621094 26.636719 4.40625 26.84375 4.445312 26.964844 " fill-opacity="1" fill-rule="nonzero"/><path fill="#ffffff" d="M 15.167969 128.421875 C 15.003906 128.113281 14.945312 127.925781 14.820312 127.800781 C 14.761719 127.75 14.480469 127.804688 14.472656 127.847656 C 14.4375 128.015625 14.40625 128.257812 14.496094 128.355469 C 14.585938 128.449219 14.832031 128.398438 15.167969 128.421875 " fill-opacity="1" fill-rule="nonzero"/><path fill="#ffffff" d="M 68.09375 117.316406 C 68.003906 117.25 67.761719 117.265625 67.636719 117.324219 C 67.632812 117.527344 67.628906 117.730469 67.621094 117.9375 C 67.988281 118.324219 68.410156 118.660156 68.808594 119.015625 C 68.933594 118.1875 68.59375 117.691406 68.09375 117.316406 " fill-opacity="1" fill-rule="nonzero"/><path fill="#ffffff" d="M 93.203125 63.992188 C 93.429688 63.945312 93.632812 63.789062 93.988281 63.59375 C 93.667969 63.375 93.503906 63.171875 93.367188 63.191406 C 93.351562 63.246094 93.355469 63.324219 93.316406 63.347656 C 93.28125 63.371094 93.207031 63.34375 93.152344 63.34375 C 93.160156 63.320312 93.164062 63.296875 93.175781 63.273438 C 93.066406 63.347656 92.964844 63.453125 92.9375 63.554688 C 92.902344 63.671875 93.140625 64.007812 93.203125 63.992188 " fill-opacity="1" fill-rule="nonzero"/><path fill="#ffffff" d="M 52.636719 25.554688 C 52.667969 25.496094 52.527344 25.265625 52.460938 25.261719 C 52.308594 25.261719 52.144531 25.34375 51.988281 25.394531 C 52.042969 25.570312 52.101562 25.742188 52.199219 26.019531 C 52.398438 25.816406 52.554688 25.707031 52.636719 25.554688 " fill-opacity="1" fill-rule="nonzero"/><path fill="#ffffff" d="M 21.542969 120.839844 C 21.699219 120.832031 21.847656 120.742188 21.996094 120.679688 C 21.910156 120.472656 21.855469 120.351562 21.804688 120.230469 C 21.65625 120.335938 21.496094 120.421875 21.378906 120.550781 C 21.351562 120.578125 21.488281 120.839844 21.542969 120.839844 " fill-opacity="1" fill-rule="nonzero"/><path fill="#ffffff" d="M 24.371094 50.933594 C 24.488281 50.957031 24.605469 50.964844 24.722656 50.976562 C 24.730469 50.914062 24.746094 50.851562 24.753906 50.78125 C 24.632812 50.777344 24.507812 50.769531 24.382812 50.761719 C 24.378906 50.824219 24.363281 50.929688 24.371094 50.933594 " fill-opacity="1" fill-rule="nonzero"/><path fill="#ffffff" d="M 59.199219 114.964844 C 59.148438 114.945312 59.097656 114.925781 59.042969 114.90625 C 58.996094 114.933594 58.945312 114.960938 58.894531 114.992188 C 58.925781 115.035156 58.953125 115.078125 58.984375 115.121094 C 59.054688 115.070312 59.128906 115.015625 59.199219 114.964844 " fill-opacity="1" fill-rule="nonzero"/><path fill="#ffffff" d="M 4.917969 26.246094 C 4.894531 26.199219 4.875 26.148438 4.855469 26.101562 C 4.847656 26.191406 4.835938 26.28125 4.828125 26.367188 C 4.828125 26.371094 4.828125 26.375 4.828125 26.375 C 4.855469 26.335938 4.886719 26.292969 4.917969 26.246094 " fill-opacity="1" fill-rule="nonzero"/><path fill="#ffffff" d="M 49.796875 45.675781 C 49.707031 45.816406 49.742188 46.035156 49.722656 46.21875 C 49.804688 46.273438 49.886719 46.328125 49.972656 46.378906 C 50.070312 46.195312 50.203125 46.023438 50.257812 45.828125 C 50.304688 45.667969 50.257812 45.484375 50.25 45.308594 C 50.09375 45.429688 49.890625 45.515625 49.796875 45.675781 " fill-opacity="1" fill-rule="nonzero"/><path fill="#ffffff" d="M 11.242188 100.3125 C 11.03125 100.171875 10.890625 100.046875 10.730469 99.992188 C 10.691406 99.976562 10.488281 100.222656 10.511719 100.285156 C 10.582031 100.460938 10.734375 100.601562 10.851562 100.757812 C 10.964844 100.632812 11.070312 100.503906 11.242188 100.3125 " fill-opacity="1" fill-rule="nonzero"/><path fill="#ffffff" d="M 71.085938 44.734375 C 70.90625 44.601562 70.753906 44.484375 70.589844 44.378906 C 70.582031 44.375 70.460938 44.503906 70.476562 44.527344 C 70.558594 44.675781 70.660156 44.820312 70.777344 44.941406 C 70.789062 44.953125 70.949219 44.828125 71.085938 44.734375 " fill-opacity="1" fill-rule="nonzero"/><path fill="#ffffff" d="M 28.558594 58.035156 C 28.667969 57.988281 28.757812 57.902344 28.855469 57.832031 C 28.765625 57.757812 28.671875 57.6875 28.582031 57.613281 C 28.515625 57.714844 28.449219 57.816406 28.398438 57.925781 C 28.394531 57.9375 28.523438 58.050781 28.558594 58.035156 " fill-opacity="1" fill-rule="nonzero"/><path fill="#ffffff" d="M 42.949219 122.464844 C 42.949219 122.457031 42.804688 122.441406 42.726562 122.433594 C 42.726562 122.726562 42.335938 123.003906 42.777344 123.425781 C 42.992188 123.101562 42.9375 122.773438 42.949219 122.464844 " fill-opacity="1" fill-rule="nonzero"/><path fill="#ffffff" d="M 38.003906 119.613281 C 37.957031 119.570312 37.914062 119.527344 37.875 119.484375 C 37.816406 119.546875 37.757812 119.613281 37.699219 119.675781 C 37.753906 119.695312 37.808594 119.71875 37.867188 119.734375 C 37.910156 119.695312 37.953125 119.652344 38.003906 119.613281 " fill-opacity="1" fill-rule="nonzero"/><path fill="#ffffff" d="M 24.730469 33.773438 C 25.199219 33.796875 25.96875 33.03125 26.136719 32.34375 C 26.15625 32.257812 26.007812 32.09375 25.898438 32.03125 C 25.84375 32.003906 25.664062 32.113281 25.617188 32.203125 C 25.554688 32.324219 25.574219 32.484375 25.539062 32.625 C 25.417969 33.070312 25.050781 33.1875 24.691406 33.085938 C 24.460938 33.023438 24.230469 32.777344 24.113281 32.554688 C 23.992188 32.320312 24.011719 32.007812 23.894531 31.277344 C 23.5 31.835938 23.292969 32.003906 23.300781 32.152344 C 23.351562 33.078125 23.964844 33.742188 24.730469 33.773438 " fill-opacity="1" fill-rule="nonzero"/><path fill="#ffffff" d="M 49.488281 57.371094 C 49.445312 57.328125 49.402344 57.285156 49.355469 57.242188 C 49.292969 57.386719 49.242188 57.503906 49.160156 57.585938 C 49.253906 57.605469 49.378906 57.449219 49.488281 57.371094 " fill-opacity="1" fill-rule="nonzero"/><path fill="#ffffff" d="M 49.105469 56.992188 C 49.097656 57 49.089844 57.011719 49.085938 57.015625 C 49.101562 57.019531 49.117188 57.019531 49.132812 57.019531 C 49.125 57.011719 49.113281 57.003906 49.105469 56.992188 " fill-opacity="1" fill-rule="nonzero"/><path fill="#ffffff" d="M 49.160156 57.585938 C 49.242188 57.503906 49.292969 57.386719 49.355469 57.242188 C 49.386719 57.179688 49.414062 57.113281 49.453125 57.039062 C 49.328125 57.035156 49.226562 57.027344 49.132812 57.019531 C 49.117188 57.019531 49.101562 57.019531 49.085938 57.015625 C 48.984375 57.011719 48.894531 57.007812 48.808594 57 C 48.804688 57.179688 48.777344 57.363281 48.820312 57.53125 C 48.832031 57.582031 49.109375 57.632812 49.160156 57.585938 " fill-opacity="1" fill-rule="nonzero"/><path fill="#ffffff" d="M 85.234375 71.390625 C 85.390625 71.382812 85.535156 71.175781 85.75 71.011719 C 85.550781 70.839844 85.417969 70.632812 85.261719 70.617188 C 84.964844 70.582031 84.71875 70.777344 84.78125 71.097656 C 84.804688 71.230469 85.082031 71.398438 85.234375 71.390625 " fill-opacity="1" fill-rule="nonzero"/><path fill="#ffffff" d="M 81.039062 82.507812 C 80.953125 82.34375 80.882812 82.175781 80.777344 82.035156 C 80.765625 82.019531 80.480469 82.136719 80.480469 82.1875 C 80.480469 82.359375 80.554688 82.53125 80.609375 82.714844 C 80.800781 82.621094 80.917969 82.566406 81.039062 82.507812 " fill-opacity="1" fill-rule="nonzero"/><path fill="#ffffff" d="M 76.214844 97.628906 C 76.582031 97.632812 77.003906 97.25 76.886719 96.949219 C 76.777344 96.664062 76.484375 96.457031 76.148438 96.074219 C 75.839844 96.480469 75.503906 96.730469 75.480469 97.003906 C 75.449219 97.390625 75.800781 97.621094 76.214844 97.628906 " fill-opacity="1" fill-rule="nonzero"/><path fill="#ffffff" d="M 88 86.695312 C 87.945312 86.582031 87.894531 86.46875 87.828125 86.332031 C 87.757812 86.421875 87.671875 86.488281 87.632812 86.582031 C 87.613281 86.621094 87.671875 86.757812 87.6875 86.757812 C 87.792969 86.75 87.894531 86.71875 88 86.695312 " fill-opacity="1" fill-rule="nonzero"/><path fill="#ffffff" d="M 63.03125 53.695312 C 63.03125 53.695312 63.03125 53.699219 63.035156 53.699219 L 63.03125 53.695312 " fill-opacity="1" fill-rule="nonzero"/><path fill="#ffffff" d="M 93.316406 63.347656 C 93.355469 63.324219 93.351562 63.246094 93.367188 63.191406 C 93.324219 63.160156 93.28125 63.128906 93.238281 63.097656 C 93.214844 63.160156 93.195312 63.21875 93.175781 63.273438 C 93.164062 63.296875 93.160156 63.320312 93.152344 63.34375 C 93.207031 63.34375 93.28125 63.371094 93.316406 63.347656 " fill-opacity="1" fill-rule="nonzero"/><path fill="#ffffff" d="M 12.515625 119.175781 C 12.6875 119.59375 13.054688 119.605469 13.433594 119.46875 C 13.5 119.445312 13.566406 119.40625 13.722656 119.335938 C 13.414062 118.957031 13.1875 118.671875 12.953125 118.382812 C 12.507812 118.480469 12.34375 118.769531 12.515625 119.175781 " fill-opacity="1" fill-rule="nonzero"/><path fill="#ffffff" d="M 64.476562 89.84375 C 64.515625 89.796875 64.507812 89.714844 64.523438 89.648438 C 64.4375 89.65625 64.351562 89.667969 64.269531 89.675781 C 64.277344 89.738281 64.292969 89.800781 64.304688 89.863281 C 64.363281 89.855469 64.449219 89.875 64.476562 89.84375 " fill-opacity="1" fill-rule="nonzero"/><path fill="#ffffff" d="M 52.59375 93.339844 C 52.679688 93.558594 52.902344 93.722656 53.175781 94.046875 C 53.394531 93.667969 53.589844 93.460938 53.632812 93.21875 C 53.566406 93.191406 53.503906 93.15625 53.441406 93.125 C 53.457031 93.019531 53.46875 92.921875 53.484375 92.820312 C 53.34375 92.695312 53.136719 92.636719 52.9375 92.695312 C 52.617188 92.796875 52.480469 93.046875 52.59375 93.339844 " fill-opacity="1" fill-rule="nonzero"/><path fill="#ffffff" d="M 64.917969 101.492188 C 64.902344 101.46875 64.828125 101.488281 64.78125 101.484375 C 64.757812 101.542969 64.734375 101.605469 64.714844 101.667969 C 64.796875 101.671875 64.886719 101.675781 64.972656 101.679688 C 64.957031 101.617188 64.953125 101.542969 64.917969 101.492188 " fill-opacity="1" fill-rule="nonzero"/><path fill="#ffffff" d="M 54 84.425781 C 53.890625 84.28125 53.785156 84.136719 53.675781 83.988281 C 53.5625 84.132812 53.441406 84.273438 53.328125 84.414062 C 53.441406 84.480469 53.550781 84.542969 53.664062 84.613281 C 53.773438 84.546875 53.886719 84.488281 54 84.425781 " fill-opacity="1" fill-rule="nonzero"/><path fill="#ffffff" d="M 44.484375 110.972656 C 44.472656 111.074219 44.785156 111.332031 44.84375 111.300781 C 45.046875 111.195312 45.199219 111 45.375 110.839844 C 45.21875 110.742188 45.054688 110.644531 44.847656 110.519531 C 44.699219 110.695312 44.503906 110.824219 44.484375 110.972656 " fill-opacity="1" fill-rule="nonzero"/><path fill="#ffffff" d="M 53.632812 93.21875 C 53.648438 93.089844 53.683594 92.964844 53.675781 92.835938 C 53.675781 92.792969 53.5625 92.761719 53.5 92.722656 C 53.492188 92.753906 53.492188 92.789062 53.484375 92.820312 C 53.46875 92.921875 53.457031 93.019531 53.441406 93.125 C 53.503906 93.15625 53.566406 93.191406 53.632812 93.21875 " fill-opacity="1" fill-rule="nonzero"/><path fill="#ffffff" d="M 30.285156 128.839844 C 30.269531 128.855469 30.320312 129.003906 30.351562 129.011719 C 30.46875 129.027344 30.589844 129.007812 30.714844 129.003906 C 30.660156 128.890625 30.609375 128.773438 30.554688 128.660156 C 30.464844 128.71875 30.363281 128.765625 30.285156 128.839844 " fill-opacity="1" fill-rule="nonzero"/><path fill="#ffffff" d="M 57.367188 57.039062 C 57.585938 57.113281 57.859375 57.070312 58.097656 57.019531 C 58.164062 57.003906 58.25 56.714844 58.203125 56.65625 C 58.160156 56.605469 58.109375 56.546875 58.0625 56.496094 C 58.03125 56.5 58 56.5 57.972656 56.503906 C 57.960938 56.457031 57.949219 56.414062 57.929688 56.371094 C 57.839844 56.292969 57.742188 56.230469 57.632812 56.195312 C 57.480469 56.144531 57.257812 56.296875 56.875 56.417969 C 57.117188 56.738281 57.210938 56.984375 57.367188 57.039062 " fill-opacity="1" fill-rule="nonzero"/><path fill="#ffffff" d="M 55.898438 47.578125 C 55.855469 47.464844 55.84375 47.320312 55.765625 47.257812 C 55.707031 47.210938 55.5625 47.261719 55.453125 47.273438 C 55.492188 47.386719 55.507812 47.535156 55.585938 47.601562 C 55.640625 47.648438 55.789062 47.589844 55.898438 47.578125 " fill-opacity="1" fill-rule="nonzero"/><path fill="#ffffff" d="M 67.640625 132.273438 C 67.820312 131.851562 67.824219 131.351562 67.914062 130.832031 C 67.179688 130.894531 66.648438 131.070312 66.507812 131.710938 C 66.457031 131.9375 66.574219 132.300781 66.742188 132.449219 C 67.050781 132.71875 67.492188 132.621094 67.640625 132.273438 " fill-opacity="1" fill-rule="nonzero"/><path fill="#ffffff" d="M 83.484375 83.367188 C 83.867188 83.582031 84.277344 83.742188 84.777344 83.28125 C 84.542969 83.023438 84.34375 82.71875 84.0625 82.535156 C 83.875 82.410156 83.53125 82.359375 83.324219 82.445312 C 83.050781 82.558594 83.160156 83.179688 83.484375 83.367188 " fill-opacity="1" fill-rule="nonzero"/><path fill="#ffffff" d="M 93.5 82.160156 C 93.597656 81.992188 93.617188 81.777344 93.722656 81.40625 C 93.210938 81.523438 92.933594 81.53125 92.730469 81.65625 C 92.628906 81.71875 92.589844 82.046875 92.660156 82.175781 C 92.84375 82.507812 93.3125 82.488281 93.5 82.160156 " fill-opacity="1" fill-rule="nonzero"/><path fill="#ffffff" d="M 74.628906 62.734375 C 74.65625 62.386719 74.71875 62.132812 74.667969 61.902344 C 74.648438 61.832031 74.300781 61.75 74.160156 61.808594 C 73.863281 61.9375 73.796875 62.230469 73.992188 62.484375 C 74.085938 62.605469 74.320312 62.621094 74.628906 62.734375 " fill-opacity="1" fill-rule="nonzero"/><path fill="#ffffff" d="M 19.171875 50.578125 C 18.613281 50.679688 18.132812 50.816406 17.644531 50.851562 C 17.199219 50.878906 16.75 50.796875 15.988281 50.742188 C 16.648438 51.527344 17.121094 52.089844 17.613281 52.679688 C 18.382812 52.273438 18.875 51.59375 19.171875 50.578125 " fill-opacity="1" fill-rule="nonzero"/><path fill="#ffffff" d="M 42.214844 70.636719 C 42.121094 70.773438 42.15625 71.171875 42.21875 71.195312 C 42.511719 71.292969 42.832031 71.296875 43.296875 71.355469 C 43.207031 70.992188 43.214844 70.757812 43.105469 70.65625 C 42.835938 70.40625 42.484375 70.226562 42.214844 70.636719 " fill-opacity="1" fill-rule="nonzero"/><path fill="#ffffff" d="M 74.289062 90.609375 C 74.292969 90.652344 74.613281 90.734375 74.636719 90.695312 C 74.722656 90.566406 74.746094 90.394531 74.792969 90.246094 C 74.589844 90.152344 74.46875 90.097656 74.351562 90.039062 C 74.324219 90.230469 74.273438 90.421875 74.289062 90.609375 " fill-opacity="1" fill-rule="nonzero"/><path fill="#ffffff" d="M 52.207031 127.113281 C 52.148438 127.234375 52.015625 127.414062 52.050781 127.464844 C 52.148438 127.59375 52.320312 127.671875 52.480469 127.777344 C 52.554688 127.589844 52.679688 127.398438 52.644531 127.359375 C 52.53125 127.25 52.359375 127.191406 52.207031 127.113281 " fill-opacity="1" fill-rule="nonzero"/><path fill="#ffffff" d="M 18.078125 69.777344 C 18.03125 69.871094 18.019531 69.980469 17.996094 70.085938 C 18.113281 70.089844 18.230469 70.097656 18.351562 70.101562 C 18.320312 69.992188 18.300781 69.878906 18.25 69.78125 C 18.234375 69.753906 18.085938 69.753906 18.078125 69.777344 " fill-opacity="1" fill-rule="nonzero"/><path fill="#ffffff" d="M 21.65625 60.078125 C 21.644531 60.046875 21.476562 60.050781 21.464844 60.074219 C 21.417969 60.179688 21.40625 60.296875 21.382812 60.410156 C 21.511719 60.421875 21.644531 60.433594 21.789062 60.453125 C 21.742188 60.300781 21.71875 60.179688 21.65625 60.078125 " fill-opacity="1" fill-rule="nonzero"/><path fill="#ffffff" d="M 57.710938 77.375 C 57.714844 77.40625 57.792969 77.433594 57.839844 77.460938 C 57.84375 77.457031 57.847656 77.449219 57.851562 77.441406 C 57.828125 77.375 57.8125 77.296875 57.785156 77.230469 C 57.757812 77.28125 57.707031 77.332031 57.710938 77.375 " fill-opacity="1" fill-rule="nonzero"/><path fill="#ffffff" d="M 62.828125 118.011719 L 62.703125 118.046875 L 62.773438 118.128906 Z M 62.828125 118.011719 " fill-opacity="1" fill-rule="nonzero"/><path fill="#ffffff" d="M 58.105469 77.601562 L 58.253906 77.707031 L 58.230469 77.535156 Z M 58.105469 77.601562 " fill-opacity="1" fill-rule="nonzero"/><path fill="#ffffff" d="M 49.582031 24.257812 C 49.804688 24.40625 50.230469 24.347656 50.519531 24.25 C 50.621094 24.214844 50.6875 23.652344 50.574219 23.546875 C 50.367188 23.351562 50.015625 23.324219 49.503906 23.152344 C 49.527344 23.679688 49.429688 24.15625 49.582031 24.257812 " fill-opacity="1" fill-rule="nonzero"/><path fill="#ffffff" d="M 34.476562 29.363281 C 34.589844 29.414062 34.738281 29.390625 34.871094 29.398438 C 34.925781 29.359375 34.980469 29.324219 35.035156 29.285156 C 34.921875 29.152344 34.828125 28.945312 34.679688 28.898438 C 34.574219 28.859375 34.398438 29.019531 34.253906 29.09375 C 34.324219 29.1875 34.382812 29.316406 34.476562 29.363281 " fill-opacity="1" fill-rule="nonzero"/><path fill="#ffffff" d="M 22.023438 114.691406 C 23.007812 114.230469 23.320312 114.085938 23.820312 114.152344 C 23.832031 114.117188 23.84375 114.085938 23.851562 114.054688 C 23.976562 113.714844 24.171875 113.402344 24.402344 113.097656 C 24.082031 113.011719 23.730469 112.9375 23.359375 112.980469 C 22.464844 113.089844 23.019531 111.558594 21.890625 111.96875 C 22.328125 113.363281 22.328125 113.363281 22.023438 114.691406 " fill-opacity="1" fill-rule="nonzero"/><path fill="#ffffff" d="M 33.582031 95.808594 C 33.96875 96.027344 34.378906 96.1875 34.878906 95.722656 C 34.644531 95.46875 34.445312 95.160156 34.164062 94.980469 C 33.972656 94.855469 33.632812 94.804688 33.425781 94.886719 C 33.152344 95 33.257812 95.625 33.582031 95.808594 " fill-opacity="1" fill-rule="nonzero"/><path fill="#ffffff" d="M 13.46875 116.804688 C 13.527344 116.792969 13.539062 116.597656 13.574219 116.484375 C 13.398438 116.453125 13.222656 116.425781 13.042969 116.394531 C 13.019531 116.578125 13.003906 116.6875 12.988281 116.800781 C 13.152344 116.808594 13.320312 116.847656 13.46875 116.804688 " fill-opacity="1" fill-rule="nonzero"/><path fill="#ffffff" d="M 60.980469 33.890625 C 60.921875 33.898438 60.824219 33.882812 60.804688 33.917969 C 60.757812 34.003906 60.742188 34.117188 60.714844 34.214844 C 60.820312 34.222656 60.921875 34.226562 61.027344 34.234375 C 61.011719 34.121094 61 34.003906 60.980469 33.890625 " fill-opacity="1" fill-rule="nonzero"/><path fill="#ffffff" d="M 50.734375 23.324219 C 50.71875 23.289062 50.636719 23.289062 50.585938 23.277344 C 50.582031 23.363281 50.578125 23.453125 50.574219 23.546875 C 50.621094 23.527344 50.671875 23.507812 50.71875 23.492188 C 50.730469 23.433594 50.757812 23.367188 50.734375 23.324219 " fill-opacity="1" fill-rule="nonzero"/><path fill="#ffffff" d="M 57.785156 77.230469 C 57.8125 77.296875 57.828125 77.375 57.851562 77.441406 C 57.867188 77.488281 57.886719 77.53125 57.917969 77.558594 C 57.972656 77.605469 58.121094 77.546875 58.230469 77.535156 C 58.191406 77.425781 58.175781 77.28125 58.097656 77.214844 C 58.039062 77.164062 57.894531 77.222656 57.785156 77.230469 " fill-opacity="1" fill-rule="nonzero"/><path fill="#ffffff" d="M 89.308594 45.511719 C 89.089844 45.707031 88.628906 45.597656 88.605469 46.207031 C 88.988281 46.15625 89.199219 45.894531 89.429688 45.699219 C 89.4375 45.691406 89.351562 45.574219 89.308594 45.511719 " fill-opacity="1" fill-rule="nonzero"/><path fill="#ffffff" d="M 42 109.523438 C 41.957031 109.398438 41.941406 109.199219 41.867188 109.171875 C 41.769531 109.136719 41.617188 109.234375 41.488281 109.273438 C 41.535156 109.402344 41.578125 109.53125 41.625 109.660156 C 41.75 109.613281 41.875 109.570312 42 109.523438 " fill-opacity="1" fill-rule="nonzero"/><path fill="#ffffff" d="M 18.371094 97.785156 C 18.449219 97.847656 18.699219 97.832031 18.714844 97.792969 C 18.777344 97.628906 18.777344 97.441406 18.820312 97.09375 C 18.527344 97.261719 18.351562 97.324219 18.246094 97.445312 C 18.203125 97.492188 18.285156 97.71875 18.371094 97.785156 " fill-opacity="1" fill-rule="nonzero"/><path fill="#ffffff" d="M 52.210938 96.648438 C 52.15625 96.621094 52.09375 96.59375 52.035156 96.5625 C 52.011719 96.605469 51.957031 96.65625 51.964844 96.695312 C 51.980469 96.757812 52.03125 96.8125 52.066406 96.871094 C 52.117188 96.796875 52.164062 96.722656 52.210938 96.648438 " fill-opacity="1" fill-rule="nonzero"/><path fill="#ffffff" d="M 53.117188 108.570312 C 53.183594 108.625 53.25 108.675781 53.320312 108.726562 C 53.347656 108.671875 53.378906 108.613281 53.410156 108.554688 C 53.367188 108.523438 53.316406 108.457031 53.277344 108.464844 C 53.21875 108.472656 53.171875 108.53125 53.117188 108.570312 " fill-opacity="1" fill-rule="nonzero"/><path fill="#ffffff" d="M 30.984375 122.46875 C 30.929688 122.492188 30.871094 122.511719 30.8125 122.539062 C 30.867188 122.601562 30.921875 122.664062 30.980469 122.730469 C 31.007812 122.679688 31.054688 122.628906 31.066406 122.570312 C 31.070312 122.542969 31.011719 122.503906 30.984375 122.46875 " fill-opacity="1" fill-rule="nonzero"/><path fill="#ffffff" d="M 5.757812 113.820312 C 5.738281 113.855469 5.8125 113.941406 5.898438 114.125 C 6.101562 114.125 6.382812 114.179688 6.613281 114.09375 C 6.734375 114.050781 6.761719 113.761719 6.835938 113.582031 C 6.589844 113.507812 6.339844 113.375 6.097656 113.386719 C 5.972656 113.394531 5.859375 113.660156 5.757812 113.820312 " fill-opacity="1" fill-rule="nonzero"/><path fill="#ffffff" d="M 37.4375 38.558594 C 37.492188 38.332031 37.523438 38.085938 37.5 37.855469 C 37.496094 37.816406 37.171875 37.8125 36.816406 37.777344 C 36.925781 38.128906 36.972656 38.359375 37.082031 38.558594 C 37.113281 38.609375 37.429688 38.589844 37.4375 38.558594 " fill-opacity="1" fill-rule="nonzero"/><path fill="#ffffff" d="M 79.90625 100.570312 C 80.039062 100.296875 80.171875 100.023438 80.308594 99.746094 C 80.171875 99.613281 80.027344 99.476562 79.871094 99.328125 C 79.878906 99.859375 79.90625 100.242188 79.90625 100.570312 " fill-opacity="1" fill-rule="nonzero"/><path fill="#ffffff" d="M 42.238281 24.820312 C 42.28125 24.832031 42.339844 24.777344 42.390625 24.753906 C 42.386719 24.699219 42.378906 24.648438 42.371094 24.59375 C 42.289062 24.621094 42.210938 24.652344 42.132812 24.683594 C 42.164062 24.730469 42.191406 24.804688 42.238281 24.820312 " fill-opacity="1" fill-rule="nonzero"/><path fill="#ffffff" d="M 68.257812 98.183594 C 68.363281 97.949219 68.453125 97.703125 68.527344 97.460938 C 68.542969 97.40625 68.476562 97.328125 68.445312 97.265625 C 68.316406 97.304688 68.074219 97.328125 68.070312 97.390625 C 68.023438 97.648438 68.050781 97.917969 68.0625 98.179688 C 68.0625 98.1875 68.246094 98.207031 68.257812 98.183594 " fill-opacity="1" fill-rule="nonzero"/><path fill="#ffffff" d="M 4.21875 69.429688 C 4.214844 69.476562 4.210938 69.527344 4.203125 69.578125 C 4.300781 69.574219 4.402344 69.582031 4.492188 69.558594 C 4.519531 69.554688 4.546875 69.40625 4.53125 69.398438 C 4.464844 69.351562 4.390625 69.324219 4.316406 69.296875 C 4.289062 69.285156 4.261719 69.273438 4.234375 69.261719 C 4.230469 69.316406 4.222656 69.375 4.21875 69.429688 " fill-opacity="1" fill-rule="nonzero"/><path fill="#ffffff" d="M 44.601562 95.066406 C 44.542969 94.949219 44.511719 94.785156 44.417969 94.734375 C 44.347656 94.695312 44.195312 94.800781 44.082031 94.839844 C 44.082031 94.960938 44.085938 95.082031 44.085938 95.199219 C 44.257812 95.15625 44.429688 95.109375 44.601562 95.066406 " fill-opacity="1" fill-rule="nonzero"/><path fill="#ffffff" d="M 36.871094 139.605469 C 36.871094 139.503906 36.875 139.40625 36.878906 139.308594 C 36.769531 139.355469 36.648438 139.390625 36.550781 139.460938 C 36.527344 139.476562 36.554688 139.582031 36.558594 139.644531 C 36.664062 139.632812 36.769531 139.617188 36.871094 139.605469 " fill-opacity="1" fill-rule="nonzero"/><path fill="#ffffff" d="M 45.203125 138.457031 C 45.144531 138.476562 45.0625 138.476562 45.039062 138.515625 C 45.011719 138.558594 45.035156 138.636719 45.035156 138.699219 C 45.09375 138.679688 45.152344 138.65625 45.214844 138.636719 C 45.210938 138.574219 45.207031 138.519531 45.203125 138.457031 " fill-opacity="1" fill-rule="nonzero"/><path fill="#ffffff" d="M 47.121094 154.652344 C 47.925781 154.257812 48.03125 153.617188 47.929688 152.890625 C 47.53125 153.230469 47.207031 153.675781 46.515625 153.367188 C 46.105469 153.1875 45.917969 153.617188 45.820312 154.09375 C 46.265625 154.28125 46.703125 154.472656 47.121094 154.652344 " fill-opacity="1" fill-rule="nonzero"/><path fill="#ffffff" d="M 4.371094 85.1875 C 4.429688 85.183594 4.503906 84.8125 4.457031 84.644531 C 4.34375 84.265625 3.875 84.058594 3.644531 84.289062 C 3.480469 84.449219 3.453125 84.742188 3.289062 85.160156 C 3.773438 85.1875 4.074219 85.234375 4.371094 85.1875 " fill-opacity="1" fill-rule="nonzero"/><path fill="#ffffff" d="M 72.847656 109.023438 C 72.996094 109.09375 73.183594 109.09375 73.355469 109.117188 C 73.371094 108.992188 73.4375 108.824219 73.386719 108.75 C 73.277344 108.589844 73.097656 108.476562 72.871094 108.273438 C 72.847656 108.78125 72.800781 109.003906 72.847656 109.023438 " fill-opacity="1" fill-rule="nonzero"/><path fill="#ffffff" d="M 23.515625 12.84375 C 23.515625 12.8125 23.015625 12.703125 22.992188 12.746094 C 22.855469 13.03125 22.769531 13.351562 22.710938 13.667969 C 22.710938 13.691406 23.050781 13.777344 23.367188 13.875 C 23.433594 13.480469 23.5 13.164062 23.515625 12.84375 " fill-opacity="1" fill-rule="nonzero"/><path fill="#ffffff" d="M 9.429688 30.738281 C 9.714844 30.480469 9.964844 30.183594 10.277344 29.84375 C 9.386719 29.675781 9.003906 29.871094 9.023438 30.433594 C 9.027344 30.542969 9.402344 30.761719 9.429688 30.738281 " fill-opacity="1" fill-rule="nonzero"/><path fill="#ffffff" d="M 2.339844 16.566406 C 2.382812 16.664062 2.546875 16.699219 2.660156 16.765625 C 2.714844 16.59375 2.765625 16.429688 2.820312 16.261719 C 2.703125 16.25 2.585938 16.242188 2.464844 16.234375 C 2.417969 16.34375 2.300781 16.492188 2.339844 16.566406 " fill-opacity="1" fill-rule="nonzero"/><path fill="#ffffff" d="M 30.835938 58.667969 C 30.527344 58.96875 30.46875 59.339844 30.871094 59.527344 C 31.351562 59.753906 31.902344 59.828125 32.425781 59.96875 C 32.476562 59.835938 32.53125 59.703125 32.582031 59.574219 C 32.140625 59.261719 31.699219 58.9375 31.238281 58.644531 C 31.148438 58.585938 30.976562 58.65625 30.835938 58.667969 " fill-opacity="1" fill-rule="nonzero"/><path fill="#ffffff" d="M 33.152344 77.652344 C 33.160156 77.585938 33.203125 77.488281 33.179688 77.472656 C 33.089844 77.40625 32.980469 77.355469 32.882812 77.304688 C 32.90625 77.417969 32.929688 77.53125 32.976562 77.636719 C 32.984375 77.664062 33.089844 77.648438 33.152344 77.652344 " fill-opacity="1" fill-rule="nonzero"/><path fill="#ffffff" d="M 53.984375 67.972656 C 54.039062 67.929688 54.007812 67.78125 54.019531 67.679688 C 53.890625 67.726562 53.769531 67.757812 53.664062 67.816406 C 53.640625 67.832031 53.667969 67.996094 53.679688 67.996094 C 53.785156 68.003906 53.917969 68.027344 53.984375 67.972656 " fill-opacity="1" fill-rule="nonzero"/><path fill="#ffffff" d="M 18.125 70.851562 C 18.222656 70.683594 18.246094 70.472656 18.351562 70.101562 C 17.835938 70.21875 17.5625 70.226562 17.359375 70.351562 C 17.257812 70.414062 17.214844 70.742188 17.285156 70.875 C 17.46875 71.203125 17.933594 71.183594 18.125 70.851562 " fill-opacity="1" fill-rule="nonzero"/><path fill="#ffffff" d="M 29.550781 35.082031 C 29.609375 35.09375 29.738281 35.058594 29.742188 35.03125 C 29.792969 34.621094 29.839844 34.207031 29.851562 33.796875 C 29.851562 33.742188 29.628906 33.671875 29.503906 33.632812 C 29.457031 33.625 29.382812 33.691406 29.339844 33.714844 C 29.355469 34.132812 29.363281 34.542969 29.390625 34.949219 C 29.394531 34.996094 29.484375 35.066406 29.550781 35.082031 " fill-opacity="1" fill-rule="nonzero"/></svg>