<svg xmlns="http://www.w3.org/2000/svg" xmlns:xlink="http://www.w3.org/1999/xlink" width="220" zoomAndPan="magnify" viewBox="0 0 165 165.000002" height="220" preserveAspectRatio="xMidYMid meet" version="1.0"><defs><clipPath id="id1"><path d="M 0.496094 0 L 164.503906 0 L 164.503906 164.007812 L 0.496094 164.007812 Z M 0.496094 0 " clip-rule="nonzero"/></clipPath><clipPath id="id2"><path d="M 91.171875 0 L 164.503906 0 L 164.503906 164.007812 L 91.171875 164.007812 Z M 91.171875 0 " clip-rule="nonzero"/></clipPath><clipPath id="id3"><path d="M 164 1 L 164.503906 1 L 164.503906 2 L 164 2 Z M 164 1 " clip-rule="nonzero"/></clipPath><clipPath id="id4"><path d="M 163 131 L 164.503906 131 L 164.503906 133 L 163 133 Z M 163 131 " clip-rule="nonzero"/></clipPath><clipPath id="id5"><path d="M 163 73 L 164.503906 73 L 164.503906 74 L 163 74 Z M 163 73 " clip-rule="nonzero"/></clipPath></defs><g clip-path="url(#id1)"><path fill="#ffffff" d="M 0.496094 0 L 164.503906 0 L 164.503906 171.460938 L 0.496094 171.460938 Z M 0.496094 0 " fill-opacity="1" fill-rule="nonzero"/><path fill="#ffffff" d="M 0.496094 0 L 164.503906 0 L 164.503906 164.007812 L 0.496094 164.007812 Z M 0.496094 0 " fill-opacity="1" fill-rule="nonzero"/><path fill="#ffffff" d="M 0.496094 0 L 164.503906 0 L 164.503906 164.007812 L 0.496094 164.007812 Z M 0.496094 0 " fill-opacity="1" fill-rule="nonzero"/><path fill="#ffffff" d="M 0.496094 0 L 164.503906 0 L 164.503906 164.007812 L 0.496094 164.007812 Z M 0.496094 0 " fill-opacity="1" fill-rule="nonzero"/></g><g clip-path="url(#id2)"><path fill="#143ef2" d="M 91.972656 72.035156 C 88.117188 98.695312 98.351562 127.105469 118.699219 144.820312 C 139.042969 162.535156 168.9375 168.785156 194.539062 160.210938 C 220.140625 151.644531 240.332031 128.375 244.664062 101.789062 C 245.75 95.132812 245.886719 88.199219 243.910156 81.75 C 240.089844 69.285156 229.199219 60.546875 221.226562 50.214844 C 212.980469 39.53125 207.679688 26.792969 199.1875 16.300781 C 190.695312 5.808594 177.253906 -2.523438 164.132812 0.707031 C 158.027344 2.207031 152.789062 6.011719 147.722656 9.734375 C 136.425781 18.035156 125.128906 26.332031 113.828125 34.632812 C 104.53125 41.464844 90.738281 60.582031 91.972656 72.035156 " fill-opacity="1" fill-rule="evenodd"/></g><path fill="#ffffff" d="M 92.214844 75.726562 C 92.183594 75.839844 92.445312 76.136719 92.589844 76.152344 C 92.746094 76.167969 93.050781 75.960938 93.066406 75.820312 C 93.105469 75.46875 93.125 75.117188 93.132812 74.757812 C 93.132812 74.753906 93.128906 74.753906 93.125 74.75 C 93.011719 74.632812 92.996094 74.304688 93.082031 74.164062 C 93.09375 74.144531 93.121094 74.125 93.152344 74.113281 C 93.15625 74.03125 93.160156 73.953125 93.160156 73.871094 C 93.050781 73.875 92.949219 73.878906 92.839844 73.886719 C 92.621094 74.5 92.382812 75.105469 92.214844 75.726562 " fill-opacity="1" fill-rule="nonzero"/><path fill="#ffffff" d="M 97.28125 64.457031 C 97.277344 64.566406 97.277344 64.671875 97.273438 64.78125 C 97.332031 64.761719 97.386719 64.742188 97.441406 64.730469 C 97.445312 64.667969 97.480469 64.585938 97.453125 64.539062 C 97.429688 64.492188 97.339844 64.484375 97.28125 64.457031 " fill-opacity="1" fill-rule="nonzero"/><path fill="#ffffff" d="M 113.351562 87.425781 C 113.351562 87.574219 113.570312 87.851562 113.691406 87.847656 C 113.917969 87.84375 114.144531 87.683594 114.710938 87.441406 C 114.152344 87.191406 113.933594 87.023438 113.707031 87.019531 C 113.585938 87.015625 113.351562 87.277344 113.351562 87.425781 " fill-opacity="1" fill-rule="nonzero"/><path fill="#ffffff" d="M 99.464844 97.566406 C 99.574219 97.746094 99.746094 97.964844 99.929688 98.003906 C 100.050781 98.035156 100.234375 97.773438 100.582031 97.480469 C 100.128906 97.339844 99.882812 97.246094 99.625 97.203125 C 99.589844 97.199219 99.421875 97.496094 99.464844 97.566406 " fill-opacity="1" fill-rule="nonzero"/><path fill="#ffffff" d="M 128.28125 151.40625 C 128.316406 151.304688 128.175781 151.15625 128.113281 151.03125 L 128.128906 151 C 128.015625 151.085938 127.84375 151.148438 127.800781 151.257812 C 127.761719 151.351562 127.757812 151.460938 127.761719 151.574219 C 127.851562 151.628906 127.941406 151.6875 128.035156 151.742188 C 128.140625 151.640625 128.246094 151.53125 128.28125 151.40625 " fill-opacity="1" fill-rule="nonzero"/><path fill="#ffffff" d="M 148.351562 122.761719 C 148.457031 122.601562 148.519531 122.421875 148.601562 122.25 C 148.46875 122.195312 148.339844 122.136719 148.132812 122.050781 C 148.089844 122.253906 148.019531 122.4375 148.027344 122.621094 C 148.03125 122.671875 148.34375 122.78125 148.351562 122.761719 " fill-opacity="1" fill-rule="nonzero"/><path fill="#ffffff" d="M 129.863281 109.023438 C 129.9375 109.003906 129.960938 108.816406 130.007812 108.703125 C 129.902344 108.667969 129.753906 108.566406 129.691406 108.605469 C 129.589844 108.671875 129.542969 108.820312 129.476562 108.933594 C 129.605469 108.972656 129.75 109.054688 129.863281 109.023438 " fill-opacity="1" fill-rule="nonzero"/><path fill="#ffffff" d="M 134.867188 121.800781 C 134.898438 121.691406 134.921875 121.578125 134.953125 121.460938 C 134.894531 121.457031 134.835938 121.457031 134.78125 121.457031 C 134.753906 121.527344 134.699219 121.601562 134.714844 121.660156 C 134.730469 121.714844 134.8125 121.753906 134.867188 121.800781 " fill-opacity="1" fill-rule="nonzero"/><path fill="#ffffff" d="M 151.289062 111.519531 C 151.359375 111.539062 151.421875 111.574219 151.488281 111.570312 C 151.511719 111.570312 151.53125 111.476562 151.550781 111.421875 C 151.488281 111.402344 151.421875 111.363281 151.359375 111.371094 C 151.328125 111.371094 151.3125 111.464844 151.289062 111.519531 " fill-opacity="1" fill-rule="nonzero"/><path fill="#ffffff" d="M 158.433594 116.398438 C 158.40625 116.421875 158.515625 116.726562 158.566406 116.726562 C 158.742188 116.734375 158.917969 116.664062 159.101562 116.617188 C 159.03125 116.402344 158.984375 116.269531 158.9375 116.136719 C 158.765625 116.222656 158.582031 116.285156 158.433594 116.398438 " fill-opacity="1" fill-rule="nonzero"/><path fill="#ffffff" d="M 107.847656 59.566406 C 107.910156 59.398438 107.996094 59.230469 108.027344 59.054688 C 108.03125 59.023438 107.785156 58.957031 107.570312 58.875 C 107.53125 59.058594 107.453125 59.238281 107.484375 59.394531 C 107.5 59.472656 107.71875 59.511719 107.847656 59.566406 " fill-opacity="1" fill-rule="nonzero"/><path fill="#ffffff" d="M 158.390625 36.109375 C 158.210938 35.773438 158.097656 35.398438 158.019531 35 C 157.730469 35.195312 157.421875 35.417969 157.195312 35.746094 C 156.648438 36.53125 155.828125 35.011719 155.355469 36.199219 C 156.765625 36.832031 156.765625 36.832031 157.609375 38.003906 C 157.9375 36.902344 158.039062 36.554688 158.449219 36.203125 C 158.425781 36.171875 158.410156 36.140625 158.390625 36.109375 " fill-opacity="1" fill-rule="nonzero"/><path fill="#ffffff" d="M 150.546875 14.53125 C 150.316406 14.597656 150.03125 14.832031 149.953125 15.054688 C 149.855469 15.351562 150.421875 15.703125 150.796875 15.574219 C 151.238281 15.425781 151.660156 15.214844 151.644531 14.488281 C 151.277344 14.496094 150.890625 14.4375 150.546875 14.53125 " fill-opacity="1" fill-rule="nonzero"/><path fill="#ffffff" d="M 152.617188 46.316406 C 152.742188 46.464844 152.824219 46.554688 152.90625 46.644531 C 153.023438 46.523438 153.171875 46.414062 153.246094 46.269531 C 153.273438 46.210938 153.128906 46.066406 153.066406 45.960938 C 152.914062 46.078125 152.769531 46.195312 152.617188 46.316406 " fill-opacity="1" fill-rule="nonzero"/><path fill="#ffffff" d="M 118.222656 54.1875 C 118.136719 54.214844 118.101562 54.414062 118.039062 54.535156 C 118.207031 54.597656 118.371094 54.671875 118.542969 54.699219 C 118.570312 54.703125 118.628906 54.476562 118.710938 54.265625 C 118.535156 54.230469 118.363281 54.148438 118.222656 54.1875 " fill-opacity="1" fill-rule="nonzero"/><path fill="#ffffff" d="M 132.382812 88.199219 C 132.105469 88.40625 131.789062 88.578125 131.5625 88.832031 C 131.472656 88.933594 131.554688 89.226562 131.632812 89.402344 C 131.65625 89.457031 131.953125 89.492188 132.023438 89.425781 C 132.28125 89.183594 132.5 88.902344 132.699219 88.613281 C 132.722656 88.582031 132.550781 88.414062 132.382812 88.199219 " fill-opacity="1" fill-rule="nonzero"/><path fill="#ffffff" d="M 138.167969 48.507812 L 138.167969 48.503906 C 138.167969 48.503906 138.164062 48.503906 138.164062 48.507812 L 138.167969 48.507812 " fill-opacity="1" fill-rule="nonzero"/><path fill="#ffffff" d="M 131.890625 104.285156 C 131.953125 104.273438 132.027344 104.273438 132.078125 104.242188 C 132.109375 104.222656 132.089844 104.144531 132.09375 104.097656 C 132.03125 104.074219 131.96875 104.058594 131.902344 104.039062 C 131.894531 104.121094 131.894531 104.203125 131.890625 104.285156 " fill-opacity="1" fill-rule="nonzero"/><path fill="#ffffff" d="M 132.695312 93.585938 C 132.753906 93.609375 132.804688 93.644531 132.867188 93.648438 C 132.886719 93.648438 132.90625 93.558594 132.929688 93.511719 C 132.875 93.492188 132.816406 93.457031 132.757812 93.460938 C 132.738281 93.464844 132.714844 93.542969 132.695312 93.585938 " fill-opacity="1" fill-rule="nonzero"/><path fill="#ffffff" d="M 131.859375 62.355469 C 131.640625 62.5625 131.445312 62.742188 131.238281 62.9375 C 131.675781 63.464844 132.050781 63.910156 132.679688 64.671875 C 133.042969 63.398438 132.402344 62.945312 131.859375 62.355469 " fill-opacity="1" fill-rule="nonzero"/><path fill="#ffffff" d="M 141.273438 28.878906 C 141.28125 28.941406 141.515625 29.039062 141.628906 29.015625 C 141.730469 29 141.898438 28.792969 141.878906 28.75 C 141.792969 28.585938 141.640625 28.453125 141.398438 28.171875 C 141.328125 28.523438 141.25 28.707031 141.273438 28.878906 " fill-opacity="1" fill-rule="nonzero"/><g clip-path="url(#id3)"><path fill="#ffffff" d="M 164.683594 1.679688 C 164.660156 1.589844 164.632812 1.5 164.609375 1.40625 C 164.546875 1.4375 164.480469 1.464844 164.414062 1.492188 C 164.433594 1.542969 164.4375 1.621094 164.472656 1.640625 C 164.535156 1.671875 164.613281 1.667969 164.683594 1.679688 " fill-opacity="1" fill-rule="nonzero"/></g><path fill="#ffffff" d="M 145.777344 50.378906 C 145.921875 50.21875 146.160156 50.035156 146.257812 49.792969 C 146.308594 49.664062 146.101562 49.441406 146.007812 49.253906 C 145.773438 49.402344 145.492188 49.5 145.335938 49.703125 C 145.25 49.804688 145.378906 50.085938 145.4375 50.28125 C 145.449219 50.316406 145.570312 50.324219 145.777344 50.378906 " fill-opacity="1" fill-rule="nonzero"/><path fill="#ffffff" d="M 125.648438 113.285156 C 125.828125 113.078125 126.019531 112.882812 126.207031 112.6875 L 126.210938 112.679688 C 125.714844 112.710938 125.21875 112.742188 124.699219 112.777344 C 125.011719 113.695312 125.203125 113.78125 125.648438 113.285156 " fill-opacity="1" fill-rule="nonzero"/><path fill="#ffffff" d="M 127.734375 100.011719 C 127.667969 99.972656 127.582031 99.886719 127.546875 99.90625 C 127.421875 99.96875 127.324219 100.070312 127.214844 100.15625 C 127.3125 100.214844 127.410156 100.265625 127.503906 100.320312 C 127.589844 100.210938 127.660156 100.109375 127.734375 100.011719 " fill-opacity="1" fill-rule="nonzero"/><path fill="#ffffff" d="M 133.558594 130.332031 C 133.464844 130.816406 133.839844 131.316406 134.257812 131.292969 C 134.496094 131.28125 134.722656 131.035156 135.101562 130.804688 C 134.695312 130.371094 134.40625 130.066406 134.121094 129.757812 C 133.925781 129.949219 133.601562 130.113281 133.558594 130.332031 " fill-opacity="1" fill-rule="nonzero"/><path fill="#ffffff" d="M 157.984375 6.332031 C 157.851562 6.292969 157.695312 6.199219 157.59375 6.238281 C 157.511719 6.265625 157.484375 6.460938 157.4375 6.582031 C 157.535156 6.664062 157.628906 6.75 157.726562 6.832031 C 157.8125 6.664062 157.898438 6.496094 157.984375 6.332031 " fill-opacity="1" fill-rule="nonzero"/><path fill="#ffffff" d="M 155.453125 81.117188 C 155.429688 81.152344 155.667969 81.425781 155.6875 81.410156 C 155.90625 81.296875 156.101562 81.144531 156.308594 80.996094 C 156.128906 80.765625 156.042969 80.65625 155.957031 80.542969 C 155.78125 80.730469 155.59375 80.910156 155.453125 81.117188 " fill-opacity="1" fill-rule="nonzero"/><path fill="#ffffff" d="M 151.019531 93.949219 C 150.984375 94.089844 150.894531 94.238281 150.925781 94.359375 C 150.949219 94.449219 151.128906 94.5 151.238281 94.5625 C 151.320312 94.457031 151.40625 94.355469 151.488281 94.246094 C 151.332031 94.144531 151.179688 94.050781 151.019531 93.949219 " fill-opacity="1" fill-rule="nonzero"/><path fill="#ffffff" d="M 121.390625 30.804688 C 121.011719 30.625 120.519531 30.851562 120.535156 31.191406 C 120.550781 31.4375 120.757812 31.667969 120.980469 32.09375 C 121.339844 31.726562 121.589844 31.515625 121.765625 31.253906 C 121.800781 31.199219 121.558594 30.882812 121.390625 30.804688 " fill-opacity="1" fill-rule="nonzero"/><path fill="#ffffff" d="M 159.308594 59.914062 C 159.273438 60.089844 159.316406 60.285156 159.332031 60.472656 C 159.515625 60.453125 159.707031 60.425781 160.011719 60.390625 C 159.863281 60.136719 159.796875 59.953125 159.667969 59.835938 C 159.609375 59.785156 159.320312 59.863281 159.308594 59.914062 " fill-opacity="1" fill-rule="nonzero"/><path fill="#ffffff" d="M 106.742188 123.527344 C 106.777344 123.667969 106.828125 123.800781 106.875 123.933594 C 106.945312 123.894531 107.070312 123.847656 107.066406 123.816406 C 107.046875 123.691406 106.992188 123.570312 106.949219 123.445312 C 106.875 123.472656 106.742188 123.515625 106.742188 123.527344 " fill-opacity="1" fill-rule="nonzero"/><path fill="#ffffff" d="M 144.683594 144.351562 C 144.144531 144.917969 143.839844 145.429688 144.179688 146.039062 C 144.300781 146.253906 144.644531 146.460938 144.886719 146.460938 C 145.316406 146.457031 145.597656 146.070312 145.472656 145.691406 C 145.324219 145.230469 144.976562 144.832031 144.683594 144.351562 " fill-opacity="1" fill-rule="nonzero"/><path fill="#ffffff" d="M 138.867188 77.972656 C 138.875 77.945312 138.742188 77.847656 138.710938 77.859375 C 138.613281 77.914062 138.53125 78 138.441406 78.070312 C 138.535156 78.144531 138.628906 78.214844 138.722656 78.285156 C 138.773438 78.183594 138.832031 78.078125 138.867188 77.972656 " fill-opacity="1" fill-rule="nonzero"/><path fill="#ffffff" d="M 161.238281 159.507812 C 161.332031 159.664062 161.441406 159.816406 161.5625 159.949219 C 161.574219 159.957031 161.742188 159.828125 161.886719 159.726562 C 161.699219 159.585938 161.53125 159.460938 161.363281 159.351562 C 161.355469 159.347656 161.226562 159.484375 161.238281 159.507812 " fill-opacity="1" fill-rule="nonzero"/><g clip-path="url(#id4)"><path fill="#ffffff" d="M 163.699219 131.898438 C 163.550781 132.089844 163.898438 132.492188 164.175781 132.429688 C 164.351562 132.386719 164.496094 132.21875 164.742188 132.042969 C 164.527344 131.867188 164.382812 131.667969 164.234375 131.65625 C 164.054688 131.644531 163.8125 131.761719 163.699219 131.898438 " fill-opacity="1" fill-rule="nonzero"/></g><path fill="#ffffff" d="M 115.890625 141.8125 C 115.796875 142.257812 116.046875 142.484375 116.503906 142.574219 C 116.625 142.414062 116.839844 142.257812 116.859375 142.078125 C 116.886719 141.832031 116.851562 141.480469 116.691406 141.332031 C 116.464844 141.113281 115.96875 141.414062 115.890625 141.8125 " fill-opacity="1" fill-rule="nonzero"/><path fill="#ffffff" d="M 143.171875 34.230469 C 143.210938 34.351562 143.222656 34.535156 143.300781 34.570312 C 143.386719 34.609375 143.53125 34.503906 143.652344 34.464844 C 143.609375 34.347656 143.601562 34.167969 143.519531 34.125 C 143.441406 34.085938 143.289062 34.191406 143.171875 34.230469 " fill-opacity="1" fill-rule="nonzero"/><path fill="#ffffff" d="M 108.675781 126.851562 C 108.246094 126.886719 107.820312 126.972656 107.140625 127.078125 C 107.824219 127.945312 108.3125 127.777344 108.785156 127.507812 C 108.882812 127.453125 108.957031 127.25 108.941406 127.132812 C 108.921875 127.023438 108.757812 126.84375 108.675781 126.851562 " fill-opacity="1" fill-rule="nonzero"/><path fill="#ffffff" d="M 155.394531 58.019531 C 155.265625 57.910156 154.957031 57.875 154.820312 57.957031 C 154.679688 58.046875 154.65625 58.320312 154.585938 58.507812 C 154.839844 58.582031 155.09375 58.652344 155.492188 58.761719 C 155.453125 58.378906 155.5 58.109375 155.394531 58.019531 " fill-opacity="1" fill-rule="nonzero"/><path fill="#ffffff" d="M 132.890625 77.976562 C 132.875 78.148438 132.847656 78.324219 132.859375 78.496094 C 132.863281 78.519531 133.085938 78.519531 133.207031 78.53125 C 133.226562 78.402344 133.304688 78.238281 133.25 78.148438 C 133.191406 78.054688 133.015625 78.027344 132.890625 77.976562 " fill-opacity="1" fill-rule="nonzero"/><path fill="#ffffff" d="M 100.066406 115.855469 C 100.023438 115.960938 100.011719 116.078125 99.984375 116.1875 C 100.101562 116.207031 100.207031 116.222656 100.324219 116.238281 C 100.304688 116.09375 100.289062 115.964844 100.257812 115.839844 C 100.253906 115.828125 100.082031 115.828125 100.066406 115.855469 " fill-opacity="1" fill-rule="nonzero"/><path fill="#ffffff" d="M 131.003906 62.363281 C 131.03125 62.308594 131.050781 62.261719 131.078125 62.214844 C 130.996094 62.269531 130.917969 62.328125 130.839844 62.382812 C 130.898438 62.378906 130.949219 62.371094 131.003906 62.363281 " fill-opacity="1" fill-rule="nonzero"/><path fill="#ffffff" d="M 146.667969 47.933594 C 146.707031 47.742188 146.746094 47.558594 146.785156 47.367188 C 146.589844 47.378906 146.398438 47.386719 146.203125 47.390625 C 146.234375 47.523438 146.257812 47.65625 146.28125 47.792969 C 146.410156 47.839844 146.539062 47.886719 146.667969 47.933594 " fill-opacity="1" fill-rule="nonzero"/><path fill="#ffffff" d="M 139.402344 145.625 C 139.351562 145.589844 139.308594 145.546875 139.269531 145.503906 C 139.320312 145.511719 139.359375 145.523438 139.386719 145.550781 C 139.40625 145.578125 139.421875 145.609375 139.433594 145.644531 C 139.378906 145.417969 139.082031 145.164062 138.84375 145.09375 C 138.484375 144.992188 138.019531 145.421875 138.089844 145.769531 C 138.183594 146.28125 138.355469 146.773438 138.5 147.296875 C 138.230469 147.410156 138.011719 147.484375 137.8125 147.589844 C 137.632812 147.679688 137.472656 147.804688 137.3125 147.910156 C 137.554688 148.621094 137.988281 148.789062 138.59375 148.605469 C 138.863281 147.992188 139.171875 147.398438 139.378906 146.769531 C 139.496094 146.421875 139.515625 146 139.433594 145.644531 C 139.421875 145.640625 139.410156 145.632812 139.402344 145.625 " fill-opacity="1" fill-rule="nonzero"/><path fill="#ffffff" d="M 145.722656 132.015625 C 145.402344 132.304688 145.457031 132.367188 145.425781 133.789062 C 146.152344 133.574219 146.863281 133.367188 147.683594 133.125 C 147.660156 132.835938 147.730469 132.480469 147.585938 132.28125 C 147.378906 131.996094 147.035156 131.683594 146.710938 131.636719 C 146.402344 131.59375 145.976562 131.789062 145.722656 132.015625 " fill-opacity="1" fill-rule="nonzero"/><path fill="#ffffff" d="M 148.703125 155.71875 C 148.882812 154.832031 148.429688 154.3125 147.902344 153.792969 C 146.9375 154.664062 146.976562 154.757812 148.703125 155.71875 " fill-opacity="1" fill-rule="nonzero"/><path fill="#ffffff" d="M 162.101562 18.917969 C 162.234375 18.8125 162.242188 18.320312 162.113281 18.199219 C 161.949219 18.046875 161.542969 17.992188 161.339844 18.09375 C 161.199219 18.164062 161.226562 18.570312 161.152344 18.984375 C 161.585938 18.96875 161.9375 19.054688 162.101562 18.917969 " fill-opacity="1" fill-rule="nonzero"/><path fill="#ffffff" d="M 108.808594 83.058594 C 108.722656 83.210938 108.542969 83.386719 108.574219 83.503906 C 108.621094 83.660156 108.828125 83.769531 108.96875 83.902344 C 109.011719 83.84375 109.054688 83.792969 109.09375 83.734375 C 109.09375 83.59375 109.128906 83.4375 109.082031 83.316406 C 109.039062 83.210938 108.90625 83.144531 108.808594 83.058594 " fill-opacity="1" fill-rule="nonzero"/><path fill="#ffffff" d="M 110.910156 98.40625 C 110.613281 99.375 111.996094 99.148438 111.960938 99.953125 C 111.941406 100.511719 112.226562 101.085938 112.339844 101.511719 C 112.808594 101.9375 112.972656 101.019531 113.359375 101.476562 C 112.933594 100.242188 112.933594 100.238281 113.449219 99.042969 C 112.234375 99.070312 112.234375 99.070312 110.910156 98.40625 " fill-opacity="1" fill-rule="nonzero"/><path fill="#ffffff" d="M 107.476562 65.320312 C 107.445312 65.433594 107.683594 65.734375 107.824219 65.753906 C 108.480469 65.847656 109.113281 65.734375 109.636719 65.019531 C 109.066406 64.988281 108.496094 64.917969 107.921875 64.933594 C 107.761719 64.941406 107.519531 65.160156 107.476562 65.320312 " fill-opacity="1" fill-rule="nonzero"/><path fill="#ffffff" d="M 134.851562 85.230469 C 134.992188 85.226562 135.167969 85.273438 135.253906 85.203125 C 135.339844 85.140625 135.316406 84.949219 135.339844 84.816406 C 135.214844 84.777344 135.089844 84.742188 134.960938 84.707031 C 134.925781 84.882812 134.890625 85.054688 134.851562 85.230469 " fill-opacity="1" fill-rule="nonzero"/><path fill="#ffffff" d="M 129.835938 131.097656 C 129.722656 131.257812 129.585938 131.410156 129.484375 131.582031 C 129.367188 131.777344 129.28125 131.988281 129.152344 132.25 C 128.636719 132.074219 128.152344 131.875 127.648438 131.75 C 127.304688 131.664062 126.84375 132.097656 126.925781 132.460938 C 126.984375 132.699219 127.222656 133.011719 127.445312 133.078125 C 127.796875 133.183594 128.21875 133.1875 128.574219 133.09375 C 129.214844 132.925781 129.828125 132.648438 130.457031 132.417969 C 130.675781 131.824219 130.53125 131.382812 129.835938 131.097656 " fill-opacity="1" fill-rule="nonzero"/><path fill="#ffffff" d="M 160.558594 130.992188 C 160.054688 132.164062 161.707031 131.671875 161.535156 132.613281 C 161.464844 133.003906 161.523438 133.382812 161.59375 133.722656 C 161.929688 133.496094 162.277344 133.3125 162.644531 133.199219 C 162.675781 133.1875 162.710938 133.1875 162.746094 133.175781 C 162.707031 132.640625 162.882812 132.316406 163.429688 131.308594 C 162.003906 131.546875 162.003906 131.546875 160.558594 130.992188 " fill-opacity="1" fill-rule="nonzero"/><path fill="#ffffff" d="M 116.375 53.847656 C 116.226562 54.011719 116.078125 54.167969 115.929688 54.324219 C 115.980469 54.460938 116.15625 54.652344 116.269531 54.667969 C 116.925781 54.757812 117.554688 54.640625 118.074219 53.921875 C 117.511719 53.890625 116.941406 53.832031 116.375 53.847656 " fill-opacity="1" fill-rule="nonzero"/><path fill="#ffffff" d="M 141.152344 113.488281 C 141.191406 113.539062 141.230469 113.582031 141.277344 113.628906 C 141.28125 113.601562 141.285156 113.570312 141.285156 113.539062 C 141.238281 113.523438 141.195312 113.503906 141.152344 113.488281 " fill-opacity="1" fill-rule="nonzero"/><path fill="#ffffff" d="M 131.449219 107.558594 C 131.527344 107.675781 131.960938 107.703125 131.980469 107.65625 C 132.085938 107.433594 132.097656 107.171875 132.171875 106.769531 C 131.800781 106.867188 131.53125 106.859375 131.460938 106.972656 C 131.367188 107.125 131.355469 107.425781 131.449219 107.558594 " fill-opacity="1" fill-rule="nonzero"/><path fill="#ffffff" d="M 115.035156 107.105469 C 115.054688 107.304688 115.015625 107.558594 115.125 107.6875 C 115.207031 107.785156 115.480469 107.726562 115.796875 107.746094 C 115.644531 107.460938 115.582031 107.257812 115.449219 107.140625 C 115.371094 107.066406 115.175781 107.113281 115.035156 107.105469 " fill-opacity="1" fill-rule="nonzero"/><path fill="#ffffff" d="M 145.90625 82.371094 C 145.957031 82.195312 145.925781 81.996094 145.925781 81.691406 C 145.640625 81.832031 145.46875 81.914062 145.296875 82 C 145.378906 82.160156 145.433594 82.339844 145.554688 82.457031 C 145.601562 82.503906 145.886719 82.433594 145.90625 82.371094 " fill-opacity="1" fill-rule="nonzero"/><path fill="#ffffff" d="M 139.269531 145.503906 C 139.308594 145.546875 139.351562 145.589844 139.402344 145.625 C 139.410156 145.632812 139.421875 145.640625 139.433594 145.644531 C 139.421875 145.609375 139.40625 145.578125 139.386719 145.550781 C 139.359375 145.523438 139.320312 145.511719 139.269531 145.503906 " fill-opacity="1" fill-rule="nonzero"/><path fill="#ffffff" d="M 125.566406 95.761719 C 125.824219 95.050781 125.695312 94.707031 125.003906 94.320312 C 124.675781 94.136719 124.339844 93.972656 124.070312 93.828125 C 123.457031 94.035156 123.023438 94.300781 122.851562 94.859375 C 123.453125 95.277344 124.035156 95.695312 124.628906 96.097656 C 124.957031 96.316406 125.429688 96.132812 125.566406 95.761719 " fill-opacity="1" fill-rule="nonzero"/><path fill="#ffffff" d="M 148.960938 107.757812 C 149.1875 108.113281 149.726562 108.1875 149.898438 107.886719 C 150.015625 107.675781 149.960938 107.367188 150.003906 106.890625 C 149.503906 107.007812 149.175781 107.050781 148.890625 107.179688 C 148.832031 107.207031 148.863281 107.601562 148.960938 107.757812 " fill-opacity="1" fill-rule="nonzero"/><path fill="#ffffff" d="M 160.449219 107.035156 C 160.425781 107.167969 160.410156 107.292969 160.386719 107.414062 C 160.449219 107.414062 160.515625 107.417969 160.574219 107.425781 C 160.546875 107.292969 160.527344 107.15625 160.503906 107.023438 C 160.375 106.96875 160.246094 106.921875 160.117188 106.871094 C 160.132812 107.035156 160.105469 107.222656 160.183594 107.355469 C 160.140625 107.222656 160.140625 107.082031 160.125 106.945312 C 160.234375 106.972656 160.339844 107.003906 160.449219 107.035156 " fill-opacity="1" fill-rule="nonzero"/><path fill="#ffffff" d="M 160.21875 107.382812 C 160.253906 107.398438 160.304688 107.40625 160.363281 107.410156 C 160.316406 107.398438 160.257812 107.390625 160.21875 107.382812 " fill-opacity="1" fill-rule="nonzero"/><path fill="#ffffff" d="M 100.890625 72.226562 C 100.644531 72.53125 100.4375 72.878906 100.023438 73.496094 C 100.726562 73.179688 101.121094 73.050781 101.457031 72.828125 C 101.582031 72.746094 101.628906 72.445312 101.609375 72.261719 C 101.574219 72.007812 101.101562 71.96875 100.890625 72.226562 " fill-opacity="1" fill-rule="nonzero"/><path fill="#ffffff" d="M 116.476562 82.617188 C 116.484375 82.34375 116.492188 82.074219 116.507812 81.800781 C 116.542969 81.136719 116.347656 81.058594 115.476562 81.488281 C 115.824219 81.878906 116.148438 82.25 116.476562 82.625 L 116.476562 82.617188 " fill-opacity="1" fill-rule="nonzero"/><path fill="#ffffff" d="M 142.78125 86.941406 C 142.730469 87.164062 142.664062 87.402344 142.679688 87.40625 C 142.867188 87.480469 143.066406 87.511719 143.265625 87.554688 C 143.289062 87.421875 143.371094 87.207031 143.320312 87.167969 C 143.175781 87.058594 142.972656 87.015625 142.78125 86.941406 " fill-opacity="1" fill-rule="nonzero"/><path fill="#ffffff" d="M 160.386719 107.417969 C 160.386719 107.414062 160.386719 107.414062 160.386719 107.414062 C 160.410156 107.292969 160.425781 107.167969 160.449219 107.035156 C 160.339844 107.003906 160.234375 106.972656 160.125 106.945312 C 160.140625 107.082031 160.140625 107.222656 160.183594 107.355469 C 160.183594 107.367188 160.199219 107.375 160.21875 107.382812 C 160.257812 107.390625 160.316406 107.398438 160.363281 107.410156 C 160.367188 107.414062 160.378906 107.414062 160.386719 107.417969 " fill-opacity="1" fill-rule="nonzero"/><path fill="#ffffff" d="M 150.546875 67.96875 C 150.488281 68.101562 150.363281 68.25 150.390625 68.355469 C 150.414062 68.445312 150.617188 68.484375 150.738281 68.550781 C 150.804688 68.417969 150.871094 68.285156 150.933594 68.152344 C 150.804688 68.089844 150.675781 68.03125 150.546875 67.96875 " fill-opacity="1" fill-rule="nonzero"/><path fill="#ffffff" d="M 140.503906 113.980469 C 140.804688 113.984375 140.996094 114.019531 141.15625 113.96875 C 141.230469 113.945312 141.3125 113.664062 141.277344 113.628906 C 141.136719 113.511719 140.953125 113.453125 140.785156 113.367188 C 140.710938 113.535156 140.636719 113.703125 140.503906 113.980469 " fill-opacity="1" fill-rule="nonzero"/><g clip-path="url(#id5)"><path fill="#ffffff" d="M 164.253906 73.804688 C 164.234375 73.746094 164.226562 73.660156 164.179688 73.621094 C 164.136719 73.589844 164.046875 73.613281 163.984375 73.613281 C 164.03125 73.710938 164.082031 73.816406 164.136719 73.914062 C 164.171875 73.878906 164.214844 73.84375 164.253906 73.804688 " fill-opacity="1" fill-rule="nonzero"/></g><path fill="#ffffff" d="M 139.640625 101.230469 C 139.410156 101.183594 139.136719 101.25 138.910156 101.339844 C 138.867188 101.355469 138.957031 101.703125 139.003906 102.042969 C 139.335938 101.9375 139.597656 101.894531 139.796875 101.757812 C 139.847656 101.722656 139.734375 101.253906 139.640625 101.230469 " fill-opacity="1" fill-rule="nonzero"/></svg>